<svg xmlns="http://www.w3.org/2000/svg" xmlns:xlink="http://www.w3.org/1999/xlink" width="1920" height="1080" viewBox="0 0 1920 1080">
  <defs>
    <linearGradient id="linear-gradient" x1="0.541" y1="0.087" x2="0.541" y2="1.087" gradientUnits="objectBoundingBox">
      <stop offset="0.2" stop-color="gray" stop-opacity="0.4"/>
      <stop offset="0.46" stop-color="gray" stop-opacity="0.502"/>
      <stop offset="1" stop-opacity="0.6"/>
    </linearGradient>
    <linearGradient id="linear-gradient-2" x1="0.602" y1="-0.327" x2="0.602" y2="0.673" gradientUnits="objectBoundingBox">
      <stop offset="0" stop-color="gray" stop-opacity="0.251"/>
      <stop offset="0.54" stop-color="gray" stop-opacity="0.122"/>
      <stop offset="1" stop-color="gray" stop-opacity="0.102"/>
    </linearGradient>
    <clipPath id="clip-웹_1920_1">
      <rect width="1920" height="1080"/>
    </clipPath>
  </defs>
  <g id="웹_1920_1" data-name="웹 1920 – 1" clip-path="url(#clip-웹_1920_1)">
    <rect width="1920" height="1080" fill="#fff"/>
    <g id="Left_Leaves" data-name="Left Leaves" transform="translate(-0.014 65.217)">
      <g id="그룹_11" data-name="그룹 11" transform="matrix(0.966, -0.259, 0.259, 0.966, -122.455, 765.782)" opacity="0.8">
        <path id="패스_202" data-name="패스 202" d="M926.908,168.76S916.236,164.416,882.333,180s-38.058,13.6-46.841,11.238-13.694-2.928-23.043-15.96c0,0-6.611-35.981-13.032-41.553s-33.809,3.211-33.809,3.211-32.675,7.555-39-36.17c0,0,4.439-32.959-1.605-43.064,0,0,12.182,5.289,32.2-3.211s36.075,9.16,36.075,9.16,5.1,13.127,4.533,20.871,2.645,10.766,12.277,6.988c0,0,4.722-6.705-1.983-17.754S796.678,54.491,798.567,45.9s7.177-20.493,24.365-26.443,40.513-7.083,51.657-11.71S888.66,0,888.66,0s-6.894,6.894,9.349,36.17,5.855,41.93,5.855,41.93-8.594,20.587-46.746,18.888c0,0-36.737,1.322-16.716,16.9,0,0,12.844-2.644,32.015-8.688s32.959,19.076,36.453,36.547C912.27,159.222,926.908,168.76,926.908,168.76Z" transform="translate(-725)" fill="#38d39f"/>
        <path id="패스_203" data-name="패스 203" d="M884.792,23.394l.189-.094c1.511,5.572-14.921,28.048-28.992,45.8l-.189-.094C875.726,43.982,886.02,27.739,884.792,23.394Z" transform="translate(-732.276 -1.296)" fill="#444053"/>
        <path id="패스_204" data-name="패스 204" d="M853.853,71.4l.094.189c-11.238,14.26-25.309,31.259-36.548,43.819-1.038,1.228-2.172,2.455-3.116,3.777L814,118.9c1.039-1.322,2.078-2.55,3.211-3.778C828.354,102.564,842.709,85.66,853.853,71.4Z" transform="translate(-729.95 -3.971)" fill="#444053"/>
        <path id="패스_205" data-name="패스 205" d="M812.665,121.4l.189.378c-20.493,25.593-21.91,65.351-21.91,65.729L786.6,182.6C786.694,182.124,791.983,147.182,812.665,121.4Z" transform="translate(-728.426 -6.753)" fill="#444053"/>
        <path id="패스_206" data-name="패스 206" d="M904.2,159.061s-24.176-12.56-43.064-8.027-61.29-15.96-61.29-15.96-18.037-7.366-21.626-15.677c0,0-12.371-13.127-13.032-19.832S752.438,75.767,744.6,75.2" transform="translate(-726.09 -4.183)" fill="none" stroke="#444053" stroke-miterlimit="10" stroke-width="1"/>
        <path id="패스_207" data-name="패스 207" d="M909.259,175.754S897.077,167.538,898.493,158" transform="translate(-734.644 -8.788)" fill="none" stroke="#444053" stroke-miterlimit="10" stroke-width="1"/>
        <path id="패스_208" data-name="패스 208" d="M888.971,186.264S871.5,179.937,869.8,155.1" transform="translate(-733.054 -8.627)" fill="none" stroke="#444053" stroke-miterlimit="10" stroke-width="1"/>
        <path id="패스_209" data-name="패스 209" d="M859.578,192.664s-16.621-13.788-11.143-37.964" transform="translate(-731.804 -8.605)" fill="none" stroke="#444053" stroke-miterlimit="10" stroke-width="1"/>
        <path id="패스_210" data-name="패스 210" d="M824.188,185.442S813.139,162.21,822.96,147.1" transform="translate(-730.222 -8.182)" fill="none" stroke="#444053" stroke-miterlimit="10" stroke-width="1"/>
        <path id="패스_211" data-name="패스 211" d="M913.295,147.8s-12.56,3.966-9.916,10.671" transform="translate(-734.901 -8.221)" fill="none" stroke="#444053" stroke-miterlimit="10" stroke-width="1"/>
        <path id="패스_212" data-name="패스 212" d="M896.782,123.6s-16.9,5.383-17.282,29.181" transform="translate(-733.594 -6.875)" fill="none" stroke="#444053" stroke-miterlimit="10" stroke-width="1"/>
        <path id="패스_213" data-name="패스 213" d="M872.057,117.7s-15.393,18.982-14.26,36.17" transform="translate(-732.383 -6.547)" fill="none" stroke="#444053" stroke-miterlimit="10" stroke-width="1"/>
        <path id="패스_214" data-name="패스 214" d="M843.605,125.6s-15.3,14.543-13.316,22.665" transform="translate(-730.847 -6.986)" fill="none" stroke="#444053" stroke-miterlimit="10" stroke-width="1"/>
        <path id="패스_215" data-name="패스 215" d="M833.738,120.072s-14.26,2.55-16.338-2.172" transform="translate(-730.139 -6.558)" fill="none" stroke="#444053" stroke-miterlimit="10" stroke-width="1"/>
        <path id="패스_216" data-name="패스 216" d="M815,101.9s7.272,9.538,9.066,7.461" transform="translate(-730.006 -5.668)" fill="none" stroke="#444053" stroke-miterlimit="10" stroke-width="1"/>
        <path id="패스_217" data-name="패스 217" d="M888.2,95.016S852.122,97.66,844,86.8" transform="translate(-731.619 -4.828)" fill="none" stroke="#444053" stroke-miterlimit="10" stroke-width="1"/>
        <path id="패스_218" data-name="패스 218" d="M807,50.8s16.9,36.264,29.182,40.892" transform="translate(-729.561 -2.826)" fill="none" stroke="#444053" stroke-miterlimit="10" stroke-width="1"/>
        <path id="패스_219" data-name="패스 219" d="M825.8,32.5s10.388,33.337,23.232,43.819" transform="translate(-730.607 -1.808)" fill="none" stroke="#444053" stroke-miterlimit="10" stroke-width="1"/>
        <path id="패스_220" data-name="패스 220" d="M904.319,66.294S876.932,78,860.5,66.2" transform="translate(-732.537 -3.682)" fill="none" stroke="#444053" stroke-miterlimit="10" stroke-width="0.75"/>
        <path id="패스_221" data-name="패스 221" d="M851.6,25s6.233,24.554,14.732,30.5" transform="translate(-732.042 -1.391)" fill="none" stroke="#444053" stroke-miterlimit="10" stroke-width="0.75"/>
        <path id="패스_222" data-name="패스 222" d="M901.254,37.2s-15.393,5.855-21.154,1.322" transform="translate(-733.627 -2.069)" fill="none" stroke="#444053" stroke-miterlimit="10" stroke-width="0.75"/>
        <path id="패스_223" data-name="패스 223" d="M800.655,110.4s0,21.437-5.855,22.948" transform="translate(-728.883 -6.141)" fill="none" stroke="#444053" stroke-miterlimit="10" stroke-width="1"/>
        <path id="패스_224" data-name="패스 224" d="M750.6,139.116s23.137,1.983,33.809-9.916" transform="translate(-726.424 -7.186)" fill="none" stroke="#444053" stroke-miterlimit="10" stroke-width="1"/>
        <path id="패스_225" data-name="패스 225" d="M793.459,83.6s-5.572,21.721-21.059,27.576" transform="translate(-727.637 -4.65)" fill="none" stroke="#444053" stroke-miterlimit="10" stroke-width="1"/>
        <path id="패스_226" data-name="패스 226" d="M735.9,114.983s16.338,5.666,30.5-8.783" transform="translate(-725.606 -5.907)" fill="none" stroke="#444053" stroke-miterlimit="10" stroke-width="1"/>
        <path id="패스_227" data-name="패스 227" d="M774.716,63.8S773.2,82.215,763.1,90.809" transform="translate(-727.119 -3.549)" fill="none" stroke="#444053" stroke-miterlimit="10" stroke-width="1"/>
        <path id="패스_228" data-name="패스 228" d="M736.6,85.544s13.6.094,16.81-4.344" transform="translate(-725.645 -4.517)" fill="none" stroke="#444053" stroke-miterlimit="10" stroke-width="1"/>
      </g>
      <g id="abffebd3-2ac6-4c6b-a0d4-e62621854ed7_1_" transform="translate(18.455 622.126) rotate(57)" opacity="0.6">
        <path id="패스_114" data-name="패스 114" d="M200.062,190.69s-14.636-25.92-36.67-33.371a45.137,45.137,0,0,1-22.833-17.085A79.4,79.4,0,0,1,133.8,128.1" transform="translate(-118.033 -87.416)" fill="none" stroke="#535461" stroke-miterlimit="10" stroke-width="2"/>
        <path id="패스_115" data-name="패스 115" d="M106.158,109.452c2.5,2.448,14.21,4.95,14.21,4.95s-2.874-11.6-5.376-14.051a6.323,6.323,0,1,0-8.941,8.941c0,.053.053.106.106.16Z" transform="translate(-104.175 -73.558)" fill="#38d39f"/>
        <path id="패스_116" data-name="패스 116" d="M115.824,147.544c3.406.692,14.636-3.566,14.636-3.566s-8.729-8.2-12.135-8.888a6.344,6.344,0,0,0-7.451,5,6.243,6.243,0,0,0,4.95,7.451Z" transform="translate(-107.242 -90.627)" fill="#38d39f"/>
        <path id="패스_117" data-name="패스 117" d="M158.094,190.534c3.3-1.118,10.8-10.432,10.8-10.432s-11.656-2.661-14.956-1.543a6.337,6.337,0,1,0,4.151,11.975Z" transform="translate(-125.455 -110.891)" fill="#38d39f"/>
        <path id="패스_118" data-name="패스 118" d="M200.559,214.87c3.459-.585,12.454-8.462,12.454-8.462S202,201.83,198.537,202.362a6.335,6.335,0,0,0,2.022,12.507Z" transform="translate(-145.833 -122.133)" fill="#38d39f"/>
        <path id="패스_119" data-name="패스 119" d="M154.967,129.333c0,3.513-6.333,13.625-6.333,13.625s-6.334-10.112-6.334-13.625a6.334,6.334,0,0,1,12.667,0Z" transform="translate(-122.009 -85.03)" fill="#38d39f"/>
        <path id="패스_120" data-name="패스 120" d="M203.483,157.067c-1.064,3.353-10.112,11.124-10.112,11.124s-3.034-11.6-1.969-14.9a6.329,6.329,0,0,1,12.082,3.779Z" transform="translate(-144.871 -97.116)" fill="#38d39f"/>
        <path id="패스_121" data-name="패스 121" d="M246.132,192.979c-.479,3.459-8.09,12.667-8.09,12.667s-4.95-10.911-4.471-14.37a6.338,6.338,0,1,1,12.561,1.7Z" transform="translate(-164.688 -114.4)" fill="#38d39f"/>
        <path id="패스_122" data-name="패스 122" d="M106.158,109.452c2.5,2.448,14.21,4.95,14.21,4.95s-2.874-11.6-5.376-14.051a6.323,6.323,0,1,0-8.941,8.941c0,.053.053.106.106.16Z" transform="translate(-104.175 -73.558)" opacity="0.25"/>
        <path id="패스_123" data-name="패스 123" d="M115.824,147.544c3.406.692,14.636-3.566,14.636-3.566s-8.729-8.2-12.135-8.888a6.344,6.344,0,0,0-7.451,5,6.243,6.243,0,0,0,4.95,7.451Z" transform="translate(-107.242 -90.627)" opacity="0.25"/>
        <path id="패스_124" data-name="패스 124" d="M158.094,190.534c3.3-1.118,10.8-10.432,10.8-10.432s-11.656-2.661-14.956-1.543a6.337,6.337,0,1,0,4.151,11.975Z" transform="translate(-125.455 -110.891)" opacity="0.25"/>
        <path id="패스_125" data-name="패스 125" d="M200.559,214.87c3.459-.585,12.454-8.462,12.454-8.462S202,201.83,198.537,202.362a6.335,6.335,0,0,0,2.022,12.507Z" transform="translate(-145.833 -122.133)" opacity="0.25"/>
        <path id="패스_126" data-name="패스 126" d="M154.967,129.333c0,3.513-6.333,13.625-6.333,13.625s-6.334-10.112-6.334-13.625a6.334,6.334,0,0,1,12.667,0Z" transform="translate(-122.009 -85.03)" opacity="0.25"/>
        <path id="패스_127" data-name="패스 127" d="M203.483,157.067c-1.064,3.353-10.112,11.124-10.112,11.124s-3.034-11.6-1.969-14.9a6.329,6.329,0,0,1,12.082,3.779Z" transform="translate(-144.871 -97.116)" opacity="0.25"/>
        <path id="패스_128" data-name="패스 128" d="M246.132,192.979c-.479,3.459-8.09,12.667-8.09,12.667s-4.95-10.911-4.471-14.37a6.338,6.338,0,1,1,12.561,1.7Z" transform="translate(-164.688 -114.4)" opacity="0.25"/>
        <path id="패스_129" data-name="패스 129" d="M225.834,170.939s-2.874-29.645-20.012-45.4a44.7,44.7,0,0,1-13.944-24.855A75.068,75.068,0,0,1,190.6,86.9" transform="translate(-144.602 -68.144)" fill="none" stroke="#535461" stroke-miterlimit="10" stroke-width="2"/>
        <path id="패스_130" data-name="패스 130" d="M170.087,60.356c1.331,3.247,10.964,10.272,10.964,10.272s2.076-11.762.8-15.009a6.34,6.34,0,1,0-11.762,4.737Z" transform="translate(-134.787 -51.659)" fill="#38d39f"/>
        <path id="패스_131" data-name="패스 131" d="M163.524,99.059c2.874,2.022,14.8,2.661,14.8,2.661s-4.63-11.017-7.5-13.04a6.342,6.342,0,0,0-7.292,10.378Z" transform="translate(-130.673 -68.434)" fill="#38d39f"/>
        <path id="패스_132" data-name="패스 132" d="M184.785,155.391c3.46.266,14.1-5.163,14.1-5.163s-9.58-7.132-13.04-7.451a6.329,6.329,0,1,0-1.064,12.614Z" transform="translate(-139.159 -94.269)" fill="#38d39f"/>
        <path id="패스_133" data-name="패스 133" d="M213.474,194.831c3.406.852,14.8-2.714,14.8-2.714s-8.25-8.675-11.6-9.58a6.329,6.329,0,0,0-3.779,12.082,4.043,4.043,0,0,1,.586.213Z" transform="translate(-152.946 -112.74)" fill="#38d39f"/>
        <path id="패스_134" data-name="패스 134" d="M206.6,98.147c-1.437,3.193-11.337,9.9-11.337,9.9s-1.7-11.815-.266-15.062a6.35,6.35,0,1,1,11.6,5.163Z" transform="translate(-146.388 -69.225)" fill="#38d39f"/>
        <path id="패스_135" data-name="패스 135" d="M237.385,143.173c-2.289,2.608-13.785,6.067-13.785,6.067s1.916-11.815,4.258-14.423a6.336,6.336,0,1,1,9.527,8.356Z" transform="translate(-160.039 -89.555)" fill="#38d39f"/>
        <path id="패스_136" data-name="패스 136" d="M263.506,193.29c-1.81,2.98-12.507,8.3-12.507,8.3s-.106-11.975,1.756-14.956a6.322,6.322,0,1,1,10.751,6.653Z" transform="translate(-172.855 -113.381)" fill="#38d39f"/>
      </g>
    </g>
    <path id="패스_110" data-name="패스 110" d="M-19.848,398.223,813,0,789.18,594.635,195.727,876.211,29.507,791.924Z" transform="translate(1220.233 -117.11) rotate(-8)" fill="#54b192"/>
    <ellipse id="타원_29" data-name="타원 29" cx="265" cy="261" rx="265" ry="261" transform="matrix(0.996, -0.087, 0.087, 0.996, 1113.666, 262.377)" fill="#54b192"/>
    <g id="그룹_2" data-name="그룹 2" transform="translate(1240.077 268.489)">
      <path id="패스_1" data-name="패스 1" d="M540.9,529.306c0,21.441-117.927,100.349-265.264,100.349S12.4,545.532,12.4,524.139s115.947,27.912,263.236,27.912S540.9,507.864,540.9,529.306Z" transform="translate(-6.473 -268.241)" fill="#3f3d56"/>
      <path id="패스_2" data-name="패스 2" d="M535.875,252.517v.869c-.338,8.886-5.264,17.771-14.342,24-9.61,6.616-22.455,10.093-35.687,12.314-2.077.338-4.153.676-6.23.966-1.062.145-2.125.29-3.139.435-29.409,3.863-59.447,4.588-89.387,5.312-31.293.773-62.585,1.545-93.878,1.932l-6.23.1c-47.519.531-94.989.1-142.314-2.608-14.681-.821-29.506-1.932-44.09-3.767-2.077-.241-4.153-.531-6.23-.821-19.317-2.753-38.054-7-55.149-13.908a124.355,124.355,0,0,1-11.831-5.457c-10.721-5.7-19.751-12.894-24.242-21.731A30.484,30.484,0,0,1,.035,233.394a40.009,40.009,0,0,1,1.062-6.23,55.276,55.276,0,0,1,6.085-14.343c6.954-11.783,17.433-22.359,26.464-33.418C52.914,155.79,65.47,125.994,47.7,101.8,42.58,94.846,35.24,88.762,31.038,81.47a32.115,32.115,0,0,1-4.056-12.749,44.8,44.8,0,0,1-.241-6.23A85.028,85.028,0,0,1,28.575,48.1c2.9-14.825,8.306-30.81,25.015-40.082C65.084,1.644,79.619-.336,94.348.05q3.115.072,6.23.29c5.65.386,11.252,1.062,16.709,1.932C150.8,7.632,181.755,18.836,213,28.929c23.808,7.678,48.436,14.874,73.982,18.3,2.076.29,4.153.531,6.23.773,5.988.676,12.024,1.111,18.109,1.256,30.327.869,65.724-5.7,85.862-22.745C416.644,10,453.152,8.695,479.616,18.546l.386.145q2.97,1.159,5.795,2.463c19.51,9.175,32.6,24.87,34.432,41.337a32.551,32.551,0,0,1,.145,6.133v.048C519.118,88.906,502.554,105.9,485.8,122.9c-2.076,2.125-4.153,4.2-6.23,6.326a225.653,225.653,0,0,0-15.308,17.047,81.306,81.306,0,0,0-5.747,8.258,53.1,53.1,0,0,0-4.1,8.306,36.527,36.527,0,0,0-2.27,9.32,24.4,24.4,0,0,0,2.415,13.328l.048.1c4.491,8.886,13.956,15.163,24.967,20.765q3.042,1.521,6.23,3.042c11.928,5.6,24.725,10.866,34.48,17.771a55.9,55.9,0,0,1,7.34,6.181,38.587,38.587,0,0,1,2.608,2.994,26.056,26.056,0,0,1,5.65,15.791C535.875,252.227,535.875,252.372,535.875,252.517Z" transform="translate(0 0)" fill="#38d39f"/>
      <path id="패스_3" data-name="패스 3" d="M535.875,252.517v.869c-.338,8.886-5.264,17.771-14.342,24-9.61,6.616-22.455,10.093-35.687,12.314-2.077.338-4.153.676-6.23.966-1.062.145-2.125.29-3.139.435-29.409,3.863-59.447,4.588-89.387,5.312-31.293.773-62.585,1.545-93.878,1.932l-6.23.1c-47.519.531-94.989.1-142.314-2.608-14.681-.821-29.506-1.932-44.09-3.767-2.077-.241-4.153-.531-6.23-.821-19.317-2.753-38.054-7-55.149-13.908a124.355,124.355,0,0,1-11.831-5.457c-10.721-5.7-19.751-12.894-24.242-21.731A30.484,30.484,0,0,1,.035,233.394a40.009,40.009,0,0,1,1.062-6.23,55.276,55.276,0,0,1,6.085-14.343c6.954-11.783,17.433-22.359,26.464-33.418C52.914,155.79,65.47,125.994,47.7,101.8,42.58,94.846,35.24,88.762,31.038,81.47a32.115,32.115,0,0,1-4.056-12.749,44.8,44.8,0,0,1-.241-6.23A85.028,85.028,0,0,1,28.575,48.1c2.9-14.825,8.306-30.81,25.015-40.082C65.084,1.644,79.619-.336,94.348.05q3.115.072,6.23.29c5.65.386,11.252,1.062,16.709,1.932C150.8,7.632,181.755,18.836,213,28.929c23.808,7.678,48.436,14.874,73.982,18.3,2.076.29,4.153.531,6.23.773,5.988.676,12.024,1.111,18.109,1.256,30.327.869,65.724-5.7,85.862-22.745C416.644,10,453.152,8.695,479.616,18.546l.386.145q2.97,1.159,5.795,2.463c19.51,9.175,32.6,24.87,34.432,41.337a32.551,32.551,0,0,1,.145,6.133v.048C519.118,88.906,502.554,105.9,485.8,122.9c-2.076,2.125-4.153,4.2-6.23,6.326a225.653,225.653,0,0,0-15.308,17.047,81.306,81.306,0,0,0-5.747,8.258,53.1,53.1,0,0,0-4.1,8.306,36.527,36.527,0,0,0-2.27,9.32,24.4,24.4,0,0,0,2.415,13.328l.048.1c4.491,8.886,13.956,15.163,24.967,20.765q3.042,1.521,6.23,3.042c11.928,5.6,24.725,10.866,34.48,17.771a55.9,55.9,0,0,1,7.34,6.181,38.587,38.587,0,0,1,2.608,2.994,26.056,26.056,0,0,1,5.65,15.791C535.875,252.227,535.875,252.372,535.875,252.517Z" transform="translate(0 0)" fill="url(#linear-gradient)"/>
      <path id="패스_4" data-name="패스 4" d="M999.529,40.959v101.8c-2.076,2.125-4.153,4.2-6.229,6.326V38.4Z" transform="translate(-513.684 -19.854)" fill="#3f3d56"/>
      <path id="패스_5" data-name="패스 5" d="M549.267,135.481v.048H55.923a44.8,44.8,0,0,1-.241-6.23h493.44A33.064,33.064,0,0,1,549.267,135.481Z" transform="translate(-28.845 -66.857)" fill="#3f3d56"/>
      <circle id="타원_1" data-name="타원 1" cx="1.835" cy="1.835" r="1.835" transform="translate(114.679 32.84)" fill="#e7effd"/>
      <circle id="타원_2" data-name="타원 2" cx="1.835" cy="1.835" r="1.835" transform="translate(56.681 29.218)" fill="#e7effd"/>
      <circle id="타원_3" data-name="타원 3" cx="0.773" cy="0.773" r="0.773" transform="translate(136.168 33.903)" fill="#e7effd"/>
      <circle id="타원_4" data-name="타원 4" cx="0.773" cy="0.773" r="0.773" transform="translate(77.929 32.116)" fill="#e7effd"/>
      <circle id="타원_5" data-name="타원 5" cx="0.773" cy="0.773" r="0.773" transform="translate(77.156 86.395)" fill="#e7effd"/>
      <circle id="타원_6" data-name="타원 6" cx="0.773" cy="0.773" r="0.773" transform="translate(435.767 45.348)" fill="#e7effd"/>
      <circle id="타원_7" data-name="타원 7" cx="0.773" cy="0.773" r="0.773" transform="translate(172.435 46.072)" fill="#e7effd"/>
      <circle id="타원_8" data-name="타원 8" cx="0.773" cy="0.773" r="0.773" transform="translate(397.424 44.527)" fill="#e7effd"/>
      <circle id="타원_9" data-name="타원 9" cx="0.773" cy="0.773" r="0.773" transform="translate(495.31 46.845)" fill="#e7effd"/>
      <path id="패스_6" data-name="패스 6" d="M565.411,404.073v.869c-.242,8.982-5.215,17.916-14.343,24.242-9.61,6.616-22.455,10.093-35.687,12.314-2.077.338-4.153.676-6.23.966-1.062.145-2.125.29-3.139.435-7.244.966-14.536,1.69-21.828,2.318-9.8.821-19.655,1.4-29.506,1.835-12.652.579-25.353.869-38.005,1.207q-37.16.942-74.369,1.642l-8.789.145-10.721.145-6.23.1c-39.116.435-78.184.193-117.155-1.4-2.608-.1-5.167-.193-7.775-.338q-8.692-.362-17.385-.869c-11.59-.676-23.325-1.5-34.915-2.7-3.091-.338-6.133-.676-9.175-1.062-2.077-.241-4.153-.531-6.23-.821-2.318-.338-4.588-.676-6.857-1.062-16.9-2.753-33.224-6.761-48.243-12.845A119.081,119.081,0,0,1,57,423.728V338.735c2.125-2.463,4.25-4.974,6.326-7.485,2.463-3.042,4.829-6.133,7-9.32h46.746V293.1h82.337v63.213h134.1V306.09H488.241a52.023,52.023,0,0,0-4.056,8.016v.29h-.193a36.528,36.528,0,0,0-2.27,9.32,24.4,24.4,0,0,0,2.415,13.328v.193l.048.1c4.491,8.885,13.956,15.163,24.967,20.765q3.042,1.521,6.23,3.042c11.783,5.554,24.484,10.721,34.19,17.578l.29.193a49.965,49.965,0,0,1,7.147,5.988c.1.048.145.145.193.193a38.6,38.6,0,0,1,2.608,2.994,26.118,26.118,0,0,1,5.65,15.6A.942.942,0,0,0,565.411,404.073Z" transform="translate(-29.535 -151.556)" fill="#38d39f"/>
      <path id="패스_7" data-name="패스 7" d="M565.411,404.073v.869c-.242,8.982-5.215,17.916-14.343,24.242-9.61,6.616-22.455,10.093-35.687,12.314-2.077.338-4.153.676-6.23.966-1.062.145-2.125.29-3.139.435-7.244.966-14.536,1.69-21.828,2.318-9.8.821-19.655,1.4-29.506,1.835-12.652.579-25.353.869-38.005,1.207q-37.16.942-74.369,1.642l-8.789.145-10.721.145-6.23.1c-39.116.435-78.184.193-117.155-1.4-2.608-.1-5.167-.193-7.775-.338q-8.692-.362-17.385-.869c-11.59-.676-23.325-1.5-34.915-2.7-3.091-.338-6.133-.676-9.175-1.062-2.077-.241-4.153-.531-6.23-.821-2.318-.338-4.588-.676-6.857-1.062-16.9-2.753-33.224-6.761-48.243-12.845A119.081,119.081,0,0,1,57,423.728V338.735c2.125-2.463,4.25-4.974,6.326-7.485,2.463-3.042,4.829-6.133,7-9.32h46.746V293.1h82.337v63.213h134.1V306.09H488.241a52.023,52.023,0,0,0-4.056,8.016v.29h-.193a36.528,36.528,0,0,0-2.27,9.32,24.4,24.4,0,0,0,2.415,13.328v.193l.048.1c4.491,8.885,13.956,15.163,24.967,20.765q3.042,1.521,6.23,3.042c11.783,5.554,24.484,10.721,34.19,17.578l.29.193a49.965,49.965,0,0,1,7.147,5.988c.1.048.145.145.193.193a38.6,38.6,0,0,1,2.608,2.994,26.118,26.118,0,0,1,5.65,15.6A.942.942,0,0,0,565.411,404.073Z" transform="translate(-29.535 -151.556)" opacity="0.3"/>
      <rect id="사각형_1" data-name="사각형 1" width="13.811" height="9.32" transform="translate(42.773 181.964)" opacity="0.4"/>
      <rect id="사각형_2" data-name="사각형 2" width="13.811" height="9.32" transform="translate(64.89 181.964)" opacity="0.4"/>
      <rect id="사각형_3" data-name="사각형 3" width="13.811" height="9.32" transform="translate(318.613 162.792)" opacity="0.4"/>
      <rect id="사각형_4" data-name="사각형 4" width="13.811" height="9.32" transform="translate(355.894 162.792)" opacity="0.4"/>
      <rect id="사각형_5" data-name="사각형 5" width="13.811" height="9.32" transform="translate(395.975 162.792)" opacity="0.4"/>
      <rect id="사각형_6" data-name="사각형 6" width="13.811" height="9.32" transform="translate(318.613 191.284)" opacity="0.4"/>
      <rect id="사각형_7" data-name="사각형 7" width="13.811" height="9.32" transform="translate(355.894 191.284)" opacity="0.4"/>
      <rect id="사각형_8" data-name="사각형 8" width="13.811" height="9.32" transform="translate(395.975 191.284)" fill="#38d39f"/>
      <rect id="사각형_9" data-name="사각형 9" width="13.811" height="9.32" transform="translate(318.613 219.776)" opacity="0.4"/>
      <rect id="사각형_10" data-name="사각형 10" width="13.811" height="9.32" transform="translate(355.894 219.776)" opacity="0.4"/>
      <rect id="사각형_11" data-name="사각형 11" width="13.811" height="9.32" transform="translate(395.975 219.776)" opacity="0.4"/>
      <rect id="사각형_12" data-name="사각형 12" width="13.811" height="9.32" transform="translate(318.613 248.268)" opacity="0.4"/>
      <rect id="사각형_13" data-name="사각형 13" width="13.811" height="9.32" transform="translate(355.894 248.268)" opacity="0.4"/>
      <rect id="사각형_14" data-name="사각형 14" width="13.811" height="9.32" transform="translate(395.975 248.268)" opacity="0.4"/>
      <rect id="사각형_15" data-name="사각형 15" width="13.811" height="9.32" transform="translate(318.613 276.711)" opacity="0.4"/>
      <rect id="사각형_16" data-name="사각형 16" width="13.811" height="9.32" transform="translate(355.894 276.711)" opacity="0.4"/>
      <rect id="사각형_17" data-name="사각형 17" width="13.811" height="9.32" transform="translate(395.975 276.711)" opacity="0.4"/>
      <path id="패스_8" data-name="패스 8" d="M930.651,337.2a36.519,36.519,0,0,0-2.27,9.32H920.8V337.2Z" transform="translate(-476.195 -174.36)" opacity="0.4"/>
      <rect id="사각형_18" data-name="사각형 18" width="13.811" height="9.32" transform="translate(444.653 191.284)" fill="#38d39f"/>
      <rect id="사각형_19" data-name="사각형 19" width="13.811" height="9.32" transform="translate(444.653 219.776)" opacity="0.4"/>
      <rect id="사각형_20" data-name="사각형 20" width="13.811" height="9.32" transform="translate(444.653 248.268)" opacity="0.4"/>
      <rect id="사각형_21" data-name="사각형 21" width="13.811" height="9.32" transform="translate(444.653 276.711)" opacity="0.4"/>
      <rect id="사각형_22" data-name="사각형 22" width="13.811" height="9.32" transform="translate(119.411 151.927)" opacity="0.4"/>
      <rect id="사각형_23" data-name="사각형 23" width="13.811" height="9.32" transform="translate(119.411 172.837)" fill="#38d39f"/>
      <rect id="사각형_24" data-name="사각형 24" width="13.811" height="9.32" transform="translate(119.411 193.698)" opacity="0.4"/>
      <rect id="사각형_25" data-name="사각형 25" width="13.811" height="9.32" transform="translate(119.411 214.609)" opacity="0.4"/>
      <rect id="사각형_26" data-name="사각형 26" width="13.811" height="9.32" transform="translate(119.411 235.519)" opacity="0.4"/>
      <rect id="사각형_27" data-name="사각형 27" width="13.811" height="9.32" transform="translate(119.411 256.381)" opacity="0.4"/>
      <rect id="사각형_28" data-name="사각형 28" width="13.811" height="9.32" transform="translate(119.411 277.291)" opacity="0.4"/>
      <rect id="사각형_29" data-name="사각형 29" width="13.811" height="9.32" transform="translate(42.773 206.302)" opacity="0.4"/>
      <rect id="사각형_30" data-name="사각형 30" width="13.811" height="9.32" transform="translate(64.89 206.302)" opacity="0.4"/>
      <rect id="사각형_31" data-name="사각형 31" width="13.811" height="9.32" transform="translate(42.773 230.69)" opacity="0.4"/>
      <rect id="사각형_32" data-name="사각형 32" width="13.811" height="9.32" transform="translate(64.89 230.69)" opacity="0.4"/>
      <rect id="사각형_33" data-name="사각형 33" width="13.811" height="9.32" transform="translate(42.773 255.028)" opacity="0.4"/>
      <rect id="사각형_34" data-name="사각형 34" width="13.811" height="9.32" transform="translate(64.89 255.028)" opacity="0.4"/>
      <rect id="사각형_35" data-name="사각형 35" width="69.057" height="8.354" transform="translate(197.45 215.623)" opacity="0.4"/>
      <rect id="사각형_36" data-name="사각형 36" width="69.057" height="8.354" transform="translate(197.45 242.183)" opacity="0.4"/>
      <rect id="사각형_37" data-name="사각형 37" width="69.057" height="8.354" transform="translate(197.45 268.743)" opacity="0.4"/>
      <path id="패스_9" data-name="패스 9" d="M201.73.39V292.069c-2.077-.241-4.153-.531-6.23-.821V.1Q198.615.172,201.73.39Z" transform="translate(-101.152 -0.05)" fill="#3f3d56"/>
      <path id="패스_10" data-name="패스 10" d="M600.63,98.524v250.39l-6.23.1V97.8C596.477,98.041,598.553,98.331,600.63,98.524Z" transform="translate(-307.418 -50.569)" fill="#3f3d56"/>
      <path id="패스_11" data-name="패스 11" d="M527.882,476.53H.3a40.011,40.011,0,0,1,1.062-6.23H520.542A50.1,50.1,0,0,1,527.882,476.53Z" transform="translate(-0.217 -243.184)" fill="#3f3d56"/>
      <path id="패스_12" data-name="패스 12" d="M993.3,427.2q3.042,1.521,6.229,3.042V510.6c-2.076.338-4.153.676-6.229.966Z" transform="translate(-513.684 -220.898)" fill="#3f3d56"/>
      <path id="패스_13" data-name="패스 13" d="M334.608,228.559H333.4V227.4h-.193v1.159H332v.241h1.207v1.159h.193V228.8h1.207Z" transform="translate(-171.734 -117.583)" fill="#e7effd"/>
      <path id="패스_14" data-name="패스 14" d="M845.908,177.407H844.7V176.2h-.241v1.207H843.3v.193h1.159v1.207h.241V177.6h1.207Z" transform="translate(-436.121 -91.109)" fill="#e7effd"/>
      <path id="패스_15" data-name="패스 15" d="M392.859,167.459H391.7V166.3h-.241v1.159H390.3v.241h1.159v1.159h.241V167.7h1.159Z" transform="translate(-201.881 -85.989)" fill="#e7effd"/>
      <circle id="타원_10" data-name="타원 10" cx="0.773" cy="0.773" r="0.773" transform="translate(188.419 156.659)" fill="#e7effd"/>
      <circle id="타원_11" data-name="타원 11" cx="0.773" cy="0.773" r="0.773" transform="translate(365.745 87.168)" fill="#e7effd"/>
      <circle id="타원_12" data-name="타원 12" cx="0.773" cy="0.773" r="0.773" transform="translate(443.88 124.014)" fill="#e7effd"/>
      <circle id="타원_13" data-name="타원 13" cx="0.773" cy="0.773" r="0.773" transform="translate(321.51 130.678)" fill="#e7effd"/>
      <path id="패스_16" data-name="패스 16" d="M516.908,338.564s-16.564,4.008-23.132,11.493c-2.173,2.511-5.457,4.3-8.837,5.6v-11.3c3.767-6.375,7.63-13.425,7.63-13.425.193-.338,1.545-5.215,1.545-5.215,3.091-2.463-.193-10.962-.193-10.962s1.883-5.409.869-6.471-.193-3.815.676-5.071.676-2.8.676-3.815-1.4-2.608-3.622-3.477.193-2.27,1.545-2.608,1.739-3.67.193-5.409.193-2.8,1.014-4.684-2.753-1.594-2.753-1.594V264h0s-1.062-5.747-2.077-15.888-5.022-11.155-5.022-11.155a49.109,49.109,0,0,1-6.23-2.463,39.64,39.64,0,0,0-6.568-2.415,33.8,33.8,0,0,1-8.451-1.159,26.449,26.449,0,0,0-5.795-1.256l-.628-.29a22.75,22.75,0,0,1-10.479-11.107l-.29-.724a25.991,25.991,0,0,0,2.753-3.67V215.9h0v.048c2.753-4.877,10.721-5.988,11.493-11.542a4.158,4.158,0,0,0,.048-.773v-.628c-.1-1.545-.628-3.091-.724-4.636a6.334,6.334,0,0,1,0-1.352v.048c.338-4.3,3.622-8.065,5.071-12.266a14.472,14.472,0,0,0,.773-3.477v-.048c.048-.338.048-.724.1-1.062V179.2a16.2,16.2,0,0,0-5.409-11.783c-2.753-2.415-6.374-3.912-8.306-7-.869-1.449-1.3-3.187-2.318-4.588-1.835-2.656-5.167-3.718-8.354-4.1s-6.423-.241-9.465-1.256c-2.173-.724-4.1-1.98-6.278-2.608a12.052,12.052,0,0,0-12.894,4.636c-1.159,1.69-1.883,3.67-3.429,4.974-3.139,2.656-8.548,1.5-11.3,4.588-1.545,1.69-1.69,4.008-1.5,6.374v.1c0,.193.048.386.048.531v.241a.717.717,0,0,0,.048.29c.1.869.241,1.69.338,2.511,0,.145.048.241.048.386l.1.773c0,.193.048.386.048.531s.048.483.048.676a1.98,1.98,0,0,0,.048.531,37.581,37.581,0,0,1-3.96,18.592c-2.608,5.119-6.519,9.851-7.2,15.55a18.526,18.526,0,0,0-.1,2.849v.338c0,.1.048.338.048.483s.048.386.048.58c0,.1.048.241.048.338.048.241.048.531.1.773l.048.145c.676,3.912,2.221,7.727,3.091,11.686a34.378,34.378,0,0,1,.628,4.395v.048c.048.483.048.966.048,1.4v1.932a38.537,38.537,0,0,1-4.008,1.256c-2.415.338-9.513,6.616-8.982,8.21s-3.187,12.556-3.284,12.894h0L368.7,296.551s-3.091,2.946-2.125,4.877-.193,5.215-.193,5.215-5.215,2.27-4.057,3.67.628,4.008-.145,5.747-2.077,4.877,0,5.409.483,7.34.483,7.34,7.292-.821,6.761,3.477c-.193,1.352,5.071,5.167,7.292,6.664v20.813a60.08,60.08,0,0,1-8.644-2.946c-4.491-2.077-29.7-6.085-35.2,5.94s7.582,28.057,10.866,29.8c0,0,3.091,2.415,3.815,3.67s4.636,1.594,4.636,1.594,4.153,1.932,5.167,2.946c.773.773,7.051,2.8,14.536,4.346h0s-6.036,13.908,3.815,12.749,14.681-5.988,21.586-5.988c2.8,0,7.92-.386,13.135-.869a34.572,34.572,0,0,1,3.863.917,52.24,52.24,0,0,0,8.982,1.932s7.775,4.2,11.928,3.139a2.1,2.1,0,0,0,.918-.483h.1a5.572,5.572,0,0,0,2.511-2.125c5.167.531,11.107,1.3,13.328,2.125,4.3,1.642,35.011-.628,35.011-.628s19.848.386,25.5,2.125,3.67-17.53-6.809-19.7a41.907,41.907,0,0,0-8.5-.821,18.789,18.789,0,0,0,1.98-2.415c3.767-.338,6.278-.579,6.278-.579s10-4.877,15.695-7.871a36.246,36.246,0,0,0,9.658-7.678s5.022-3.139,7.1-4.346,3.091-5.215,3.091-5.215C556.749,333.832,516.908,338.564,516.908,338.564Zm-44.959-44.621V292.2c.531.386.483,1.014,0,1.738Zm.145,12.314c.435.531.821,1.062,1.111,1.449,1.111,1.449-.918,2.125-.773,4.539.048.531.1,1.3.145,2.125h0c-.193-3.477-.386-6.326-.483-8.113Z" transform="translate(-171.494 -76.244)" fill="url(#linear-gradient-2)"/>
      <path id="패스_17" data-name="패스 17" d="M382.324,583.122s-9.658-2.27-14.149-4.3-29.7-6.036-35.2,5.892,7.582,27.767,10.866,29.506,35.2-21.924,35.2-21.924l25.208,10.624,4.829-16.467Z" transform="translate(-171.546 -298.105)" fill="#65617d"/>
      <path id="패스_18" data-name="패스 18" d="M476.471,597H550.55a17.786,17.786,0,0,1,17.771,17.771v2.56A17.786,17.786,0,0,1,550.55,635.1H476.471A17.786,17.786,0,0,1,458.7,617.331v-2.56A17.724,17.724,0,0,1,476.471,597Z" transform="translate(-237.249 -308.699)" fill="#65617d"/>
      <path id="패스_19" data-name="패스 19" d="M568.27,616.075a18.88,18.88,0,0,1-3.187,10.527,20.1,20.1,0,0,1-2.415,2.946,19.129,19.129,0,0,1-13.473,5.6H477.675a19.075,19.075,0,0,1,0-38.15h71.519A19.085,19.085,0,0,1,568.27,616.075Z" transform="translate(-237.198 -308.699)" opacity="0.1"/>
      <path id="패스_20" data-name="패스 20" d="M484.232,638.8s-11.01,2.8-19.944,2.7c-8.982-.145-50.947,17.288-50.947,17.288s-6.036,13.763,3.815,12.652,14.681-5.94,21.586-5.94,28.83-2.415,28.83-2.415l21.055-15.55Z" transform="translate(-212.848 -330.313)" fill="#fbbebe"/>
      <path id="패스_21" data-name="패스 21" d="M520.817,316.893l-19.7,3.863-1.3.241s-15.6-4.153-16.129-4.491S469,297.094,469,297.094s7.147.1,12.8-3.139a4.026,4.026,0,0,0,.579-.386,12.618,12.618,0,0,0,5.312-6.519l.29-.869a18.147,18.147,0,0,0-.145-8.5c-1.932-8.065,2.511-10.286,8.4-10.093,8.5.29,20.089,5.6,20.089,5.6a23.406,23.406,0,0,0,1.835,7.871l.29.724a22.548,22.548,0,0,0,10.479,11.01l.628.29c.628.29,1.3.579,1.98.821C546.556,299.653,520.817,316.893,520.817,316.893Z" transform="translate(-242.575 -138.358)" fill="#fbbebe"/>
      <path id="패스_22" data-name="패스 22" d="M538.131,281.847a24.907,24.907,0,0,1-30.713,5.312,16.409,16.409,0,0,0,.1-9.369c-4.684-19.7,28.492-4.491,28.492-4.491A25,25,0,0,0,538.131,281.847Z" transform="translate(-262.257 -138.42)" opacity="0.1"/>
      <path id="패스_23" data-name="패스 23" d="M531.04,234.118a24.728,24.728,0,0,1-3.767,13.135,25.533,25.533,0,0,1-2.753,3.622,24.7,24.7,0,0,1-16.854,8.016c-.483.048-1.014.048-1.5.048a24.87,24.87,0,1,1,24.87-24.822Z" transform="translate(-248.936 -108.172)" fill="#fbbebe"/>
      <path id="패스_24" data-name="패스 24" d="M520.817,343.9l-19.7,3.863-1.3.241s-15.6-4.153-16.129-4.491S469,324.1,469,324.1s7.147.1,12.8-3.139a4.028,4.028,0,0,0,.579-.386,23.092,23.092,0,0,0,16.805,7.34,28.822,28.822,0,0,0,3.525-.241c2.753-.435,5.553-.724,8.354-.966,5.36-.579,13.522-2.173,17.82-6.906l.628.29c.628.29,1.3.579,1.98.821C546.556,326.657,520.817,343.9,520.817,343.9Z" transform="translate(-242.575 -165.362)" opacity="0.1"/>
      <path id="패스_25" data-name="패스 25" d="M518.1,394.624c.145,3.815,2.946,46.6,2.946,46.6H434.9l.58-26.946.483-21.538.145-7.1.676-24.532-2.511-2.221L420.7,346.912h0c.1-.338,3.767-11.252,3.284-12.749s6.568-7.775,8.982-8.113c1.352-.338,2.7-.724,4.056-1.207,4.057-1.449,9.513-3.525,10.093-3.187.869.435,9.32-.338,9.658-.386h0a23.083,23.083,0,0,0,17.433,8.016,21.7,21.7,0,0,0,3.525-.29c2.753-.435,5.553-.724,8.354-.966,5.6-.579,14.342-2.366,18.447-7.63a27.066,27.066,0,0,1,5.795,1.256,34.04,34.04,0,0,0,8.451,1.159,44.5,44.5,0,0,1,6.568,2.415,48.843,48.843,0,0,0,6.229,2.415s3.96,1.014,5.022,11.059,2.077,15.695,2.077,15.695l-20.524,17.771C518.1,372.168,517.958,390.809,518.1,394.624Z" transform="translate(-217.6 -165.673)" fill="#38d39f"/>
      <path id="패스_26" data-name="패스 26" d="M417.491,520.181l3.042,4.829,11.3,4.008,7.775-14.2-7.147-4.829L420.968,505.5l-6.568,3.815Z" transform="translate(-214.342 -261.385)" fill="#fbbebe"/>
      <path id="패스_27" data-name="패스 27" d="M618.945,563.52s16.033-1.207,22.6-8.644,23.132-11.4,23.132-11.4,39.889-4.684,24.146,30.568c0,0-1.014,3.96-3.091,5.167s-7.1,4.3-7.1,4.3l-61.233-5.36Z" transform="translate(-319.311 -280.917)" fill="#65617d"/>
      <path id="패스_28" data-name="패스 28" d="M616.949,621.194a18.88,18.88,0,0,1-3.187,10.528c-10.286.918-33.128,3.042-37.909,4.395-5.892,1.642-17.723-1.207-19.027-1.545l-.145-.048s-2.27-6.954-3.38-11.4c-.483-2.028-.724-3.525-.435-3.622,1.062-.338,10.527-2.946,10.383-1.449S591.741,606.9,591.741,606.9l.869,11.059C595.556,621.387,616.949,616.413,616.949,621.194Z" transform="translate(-285.877 -313.818)" opacity="0.1"/>
      <path id="패스_29" data-name="패스 29" d="M647.576,612.591l-1.207,4.491a34.967,34.967,0,0,1-9.658,7.582c-5.7,2.946-15.695,7.775-15.695,7.775s-36.75,3.091-42.979,4.829-19.172-1.545-19.172-1.545-4.829-14.681-3.815-15.019,10.527-2.946,10.383-1.449S593.925,608.1,593.925,608.1Z" transform="translate(-286.998 -314.438)" fill="#65617d"/>
      <path id="패스_30" data-name="패스 30" d="M534.9,679.679s18.061,1.256,22.359,2.9,35.011-.628,35.011-.628,19.848.386,25.5,2.077,3.67-17.385-6.809-19.51-25.256,1.014-25.256,1.014-16.66-2.173-18.689-2.415-15.357.145-15.357.145Z" transform="translate(-276.651 -342.845)" fill="#fbbebe"/>
      <path id="패스_31" data-name="패스 31" d="M387.8,598.9s23.9,2.173,30.472,6.085Z" transform="translate(-200.588 -309.681)" opacity="0.1"/>
      <path id="패스_32" data-name="패스 32" d="M668.429,566.5s-18.689,4.539-26.029,11.252Z" transform="translate(-332.238 -292.928)" opacity="0.1"/>
      <path id="패스_33" data-name="패스 33" d="M390.7,587.6c.386.145,11.01,1.5,10.721,2.511S390.7,587.6,390.7,587.6Z" transform="translate(-202.087 -303.838)" opacity="0.1"/>
      <path id="패스_34" data-name="패스 34" d="M356.1,631.321l1.4,5.167a23.638,23.638,0,0,1,3.815,3.622c.724,1.207,4.636,1.545,4.636,1.545s4.153,1.883,5.167,2.946,12.266,4.3,22.793,5.7,30.037,3.96,34.19,5.36a47.943,47.943,0,0,0,8.982,1.883s7.775,4.153,11.928,3.091,11.2-19.848,11.2-19.848-27.285-6.374-28.154-8.451S404.971,620.6,404.971,620.6l-15.55.386Z" transform="translate(-184.196 -320.902)" opacity="0.1"/>
      <path id="패스_35" data-name="패스 35" d="M354,623.01l1.4,5.167a23.64,23.64,0,0,1,3.815,3.622c.724,1.207,4.636,1.545,4.636,1.545s4.153,1.883,5.167,2.946,12.266,4.3,22.793,5.7,30.037,3.96,34.19,5.36a47.933,47.933,0,0,0,8.982,1.883s7.775,4.153,11.928,3.091,11.2-19.848,11.2-19.848-27.285-6.375-28.154-8.451S390.6,606.253,390.6,606.253L378.532,603.5Z" transform="translate(-183.11 -312.06)" fill="#65617d"/>
      <path id="패스_36" data-name="패스 36" d="M409.458,371.8l-3.042,1.738-5.8,39.7s-3.091,2.946-2.125,4.829-.193,5.167-.193,5.167-5.215,2.27-4.056,3.622.628,3.96-.145,5.7-2.076,4.829,0,5.36.338,7.244.338,7.244,7.292-.821,6.761,3.429c-.241,1.738,8.258,7.244,8.258,7.244s-9.61-17.433,11.928-15.019l1.835-9.8s1.835-5.553,0-7.244.435-9.9.435-9.9l.386-35.639Z" transform="translate(-203.267 -192.251)" fill="#38d39f"/>
      <path id="패스_37" data-name="패스 37" d="M417.4,478c.386.628,12.025,1.932,12.749,4.008S417.4,478,417.4,478Z" transform="translate(-215.894 -247.166)" opacity="0.1"/>
      <path id="패스_38" data-name="패스 38" d="M409.8,493.946s1.594-4.926,5.312-4.056S409.8,493.946,409.8,493.946Z" transform="translate(-211.964 -253.26)" opacity="0.1"/>
      <path id="패스_39" data-name="패스 39" d="M405.6,506.758s2.8-6.568,6.568-6.085S405.6,506.758,405.6,506.758Z" transform="translate(-209.792 -258.876)" opacity="0.1"/>
      <path id="패스_40" data-name="패스 40" d="M631.459,504.261l-1.207,7.244s-12.411,22.794-14.68,23.131-14.487-15.212-14.487-15.212L597.8,504.213l12.894-2.463,5.747-5.65C616.44,496.148,630.928,497.549,631.459,504.261Z" transform="translate(-309.176 -256.525)" fill="#fbbebe"/>
      <path id="패스_41" data-name="패스 41" d="M635.8,380.8l4.684,3.284v17.433s3.622-.338,2.753,1.545-2.608,2.946-1.014,4.684,1.207,5.022-.193,5.36-3.815,1.739-1.545,2.608,3.622,2.415,3.622,3.477.193,2.608-.676,3.815-1.739,3.96-.676,5.022-.869,6.374-.869,6.374,3.284,8.451.193,10.866c0,0-1.4,4.829-1.545,5.167,0,0,2.173-16.805-19.558-9.707,0,0-.386-6.423-.531-8.789s1.883-3.042.773-4.491-3.911-4.684-2.608-5.505.869-2.415.338-3.622-2.318-1.207-.676-2.656,2.656-2.849,1.642-3.525-2.656-2.946-1.3-3.96,1.4-16.033,1.4-16.033S625.469,369.93,635.8,380.8Z" transform="translate(-319.412 -195.355)" fill="#38d39f"/>
      <path id="패스_42" data-name="패스 42" d="M650.8,444.65s6.616-1.787,6.857,0S650.8,444.65,650.8,444.65Z" transform="translate(-336.582 -229.51)" opacity="0.1"/>
      <path id="패스_43" data-name="패스 43" d="M635.3,454.549s9.079-2.27,10.238-.483S635.3,454.549,635.3,454.549Z" transform="translate(-328.567 -234.435)" opacity="0.1"/>
      <path id="패스_44" data-name="패스 44" d="M631.1,465.027s13.666-1.883,14.536.869S631.1,465.027,631.1,465.027Z" transform="translate(-326.395 -240.132)" opacity="0.1"/>
      <path id="패스_45" data-name="패스 45" d="M635.3,478c.483.145,13.135,1.014,13.377,3.429S635.3,478,635.3,478Z" transform="translate(-328.567 -247.166)" opacity="0.1"/>
      <path id="패스_46" data-name="패스 46" d="M430.171,494.1h98.08a5.07,5.07,0,0,1,5.07,5.071V550.5a5.07,5.07,0,0,1-5.07,5.071h-98.08A5.07,5.07,0,0,1,425.1,550.5V499.171A5.07,5.07,0,0,1,430.171,494.1Z" transform="translate(-219.875 -255.491)" fill="#3f3d56"/>
      <circle id="타원_14" data-name="타원 14" cx="4.008" cy="4.008" r="4.008" transform="translate(255.351 265.363)" fill="#e7effd"/>
      <path id="패스_47" data-name="패스 47" d="M462.7,416.1s10.383,7.92,18.4,1.883C481.051,417.983,467.529,419.239,462.7,416.1Z" transform="translate(-239.318 -215.158)" opacity="0.1"/>
      <path id="패스_48" data-name="패스 48" d="M571.4,420.5s10.383,7.92,18.4,1.883C589.8,422.383,576.229,423.639,571.4,420.5Z" transform="translate(-295.525 -217.433)" opacity="0.1"/>
      <path id="패스_49" data-name="패스 49" d="M507.305,234.185a24.728,24.728,0,0,1-3.767,13.135c-.193-6.906-1.835-13.86-5.6-19.606-3.429-5.312-13.908-14.584-21.152-11.976a5.1,5.1,0,0,0-3.139,3.38c-.724,2.7,1.352,3.863,2.7,5.988a18.365,18.365,0,0,1,2.511,12.411,11.226,11.226,0,0,1-.386,1.738c-1.111,4.25-3.718,9.127-1.062,12.6,1.883,2.415,5.892,3.284,6.423,6.278a5.247,5.247,0,0,1,.048.869c-.145,2.028-1.835,3.815-2.608,5.795-.869,2.366-.386,4.684.531,7.051,1.207,3.091,3.091,6.181,3.574,9.465s-.531,6.278-1.69,9.32c-1.111,2.9-2.415,5.795-2.849,8.789-.821,5.747,1.256,12.363-2.318,16.9a2.626,2.626,0,0,1-1.594,1.062c-2.318.241-1.932-3.912-3.767-5.312.193,2.415.386,4.926-.483,7.2s-3.139,4.2-5.553,3.815l-.821-5.409a15.176,15.176,0,0,1-5.747,3.574,42.547,42.547,0,0,1,5.988-16.226c-6.085,2.946-9.61,9.272-12.8,15.212-1.98,3.718-4.008,7.775-3.332,11.928.29,1.69,1.014,3.284,1.159,5.022s-.483,3.718-2.028,4.346a3.645,3.645,0,0,1-4.008-1.256l-.193-.193c-.1-.145-.193-.241-.29-.386a4.582,4.582,0,0,1-.483-.821,14.32,14.32,0,0,1-.966-3.187l-.1-.483c-1.594-7.051-3.042-14.342-1.883-21.49.435-2.608,1.207-5.215,1.111-7.92a15.173,15.173,0,0,0-.918-4.395c-1.4-3.96-4.1-7.582-5.65-11.542,0-.048-.048-.048-.048-.1-.821-2.125-1.207-4.733.29-6.423a13.182,13.182,0,0,1,2.9-1.932c2.994-1.932,4.346-5.65,4.877-9.224a32.545,32.545,0,0,0,.386-4.829c4.056-1.449,9.513-3.525,10.093-3.187.869.435,9.32-.338,9.658-.386a12.865,12.865,0,0,0,5.94-6.857l.29-.869a24.848,24.848,0,1,1,36.75-21.876Z" transform="translate(-225.201 -108.239)" opacity="0.1"/>
      <path id="패스_50" data-name="패스 50" d="M478.679,208.57c-1.159,4.25-3.719,9.127-1.062,12.6,1.883,2.415,5.892,3.284,6.423,6.278.435,2.415-1.69,4.395-2.559,6.664-2.028,5.409,3.284,10.769,4.1,16.516.869,6.23-3.67,11.88-4.539,18.109-.821,5.747,1.256,12.363-2.318,16.9a2.626,2.626,0,0,1-1.594,1.062c-2.318.241-1.932-3.912-3.767-5.312.193,2.415.386,4.926-.483,7.2s-3.139,4.153-5.553,3.815L466.509,287a15.913,15.913,0,0,1-5.747,3.622,42.548,42.548,0,0,1,5.988-16.226c-6.085,2.946-9.61,9.272-12.8,15.212-1.98,3.718-4.008,7.775-3.332,11.976.29,1.69,1.014,3.284,1.159,5.022s-.483,3.718-2.028,4.346A3.69,3.69,0,0,1,445.6,309.5a10.84,10.84,0,0,1-1.69-4.395c-1.642-7.2-3.187-14.632-1.98-21.924.435-2.656,1.207-5.264,1.111-7.92-.193-5.843-4.491-10.624-6.616-16.033-.821-2.125-1.207-4.733.29-6.423a13.179,13.179,0,0,1,2.9-1.932c2.994-1.98,4.346-5.65,4.877-9.224a32.009,32.009,0,0,0-.338-11.542c-1.207-5.7-4.008-11.2-3.284-17,.676-5.65,4.539-10.334,7.2-15.4a36.561,36.561,0,0,0,3.718-21.3c-.435-3.38-1.256-7.34,1.062-9.9,2.753-3.042,8.113-1.883,11.3-4.539,1.545-1.3,2.318-3.284,3.429-4.926a12.054,12.054,0,0,1,12.894-4.588c2.173.628,4.1,1.883,6.278,2.559,3.042.966,6.278.869,9.465,1.256s6.519,1.449,8.354,4.056c.966,1.4,1.4,3.091,2.318,4.539,1.932,3.091,5.554,4.588,8.306,6.954a16.089,16.089,0,0,1,4.539,17.192c-1.642,4.588-5.457,8.644-5.119,13.473.145,1.98.966,3.96.724,5.94-.773,5.505-8.741,6.616-11.493,11.4.241-7.92-1.3-16.033-5.6-22.649-3.429-5.312-13.908-14.584-21.152-12.025a5.1,5.1,0,0,0-3.139,3.38c-.724,2.7,1.352,3.863,2.7,5.988A18.531,18.531,0,0,1,478.679,208.57Z" transform="translate(-225.356 -78.616)" fill="#3f3d56"/>
      <g id="그룹_1" data-name="그룹 1" transform="translate(210.32 92.094)" opacity="0.2">
        <path id="패스_51" data-name="패스 51" d="M450.232,302.479a34.5,34.5,0,0,0-.676-7.389c-1.014-4.829-3.187-9.562-3.38-14.391-.29,5.409,2.221,10.624,3.38,15.936A33.852,33.852,0,0,1,450.232,302.479Z" transform="translate(-441.081 -237.238)"/>
        <path id="패스_52" data-name="패스 52" d="M481.19,404.47c.435-.773.869-1.545,1.3-2.27-6.085,2.946-9.61,9.272-12.8,15.212-1.835,3.429-3.718,7.2-3.429,11.01.241-3.284,1.835-6.519,3.429-9.465C472.643,413.5,475.927,407.657,481.19,404.47Z" transform="translate(-451.467 -300.064)"/>
        <path id="패스_53" data-name="패스 53" d="M457.88,451.8a3.672,3.672,0,0,1-2.028,3.042,3.762,3.762,0,0,1-4.153-1.449,10.84,10.84,0,0,1-1.69-4.394c-1.159-5.167-2.318-10.431-2.415-15.695-.1,5.747,1.111,11.59,2.415,17.24a10.841,10.841,0,0,0,1.69,4.395,3.762,3.762,0,0,0,4.153,1.449c1.594-.628,2.221-2.656,2.077-4.346A.435.435,0,0,1,457.88,451.8Z" transform="translate(-441.824 -316.145)"/>
        <path id="패스_54" data-name="패스 54" d="M522.916,258.4a15.732,15.732,0,0,1-.58,3.67c-.821,3.139-2.463,6.664-2.173,9.658.242-2.608,1.5-5.505,2.173-8.113A19.221,19.221,0,0,0,522.916,258.4Z" transform="translate(-479.334 -225.707)"/>
        <path id="패스_55" data-name="패스 55" d="M468.555,200.358a35.052,35.052,0,0,0-.29-5.505c-.193-1.352-.386-2.753-.483-4.153a32.978,32.978,0,0,0,.483,5.747A25.688,25.688,0,0,1,468.555,200.358Z" transform="translate(-452.257 -190.7)"/>
        <path id="패스_56" data-name="패스 56" d="M532.563,308.245a.177.177,0,0,0-.048-.145c-.386,1.787-1.835,3.429-2.511,5.264a7.971,7.971,0,0,0-.435,3.38,5.987,5.987,0,0,1,.435-1.835C530.873,312.639,533,310.611,532.563,308.245Z" transform="translate(-484.2 -251.406)"/>
        <path id="패스_57" data-name="패스 57" d="M442.967,383.989c-.193-5.843-4.491-10.624-6.616-16.033a10.224,10.224,0,0,1-.676-2.656,8.87,8.87,0,0,0,.676,4.2c2.076,5.36,6.23,10.045,6.568,15.743A10.493,10.493,0,0,0,442.967,383.989Z" transform="translate(-435.651 -280.983)"/>
        <path id="패스_58" data-name="패스 58" d="M538.728,228.856c-3.477-5.312-13.908-14.584-21.152-12.024a5.1,5.1,0,0,0-3.139,3.38,3.375,3.375,0,0,0-.048,1.835,2.091,2.091,0,0,1,.048-.241,5.21,5.21,0,0,1,3.139-3.38c7.2-2.608,17.675,6.712,21.152,12.025,3.912,5.988,5.505,13.232,5.6,20.427C544.475,243.1,542.93,235.279,538.728,228.856Z" transform="translate(-476.312 -203.986)"/>
        <path id="패스_59" data-name="패스 59" d="M587.993,265.348c-.773,5.505-8.692,6.568-11.493,11.4v1.594c2.753-4.829,10.721-5.94,11.493-11.4a9.324,9.324,0,0,0,0-1.642C588.042,265.3,588.042,265.348,587.993,265.348Z" transform="translate(-508.482 -229.275)"/>
        <path id="패스_60" data-name="패스 60" d="M604,220.646c-1.642,4.588-5.457,8.644-5.119,13.473v.193c.338-4.3,3.622-7.968,5.071-12.121a15.336,15.336,0,0,0,.869-5.892A15.345,15.345,0,0,1,604,220.646Z" transform="translate(-520.042 -203.937)"/>
        <path id="패스_61" data-name="패스 61" d="M518.96,417.427a2.627,2.627,0,0,1-1.594,1.062c-2.318.241-1.932-3.912-3.767-5.312.048.531.1,1.111.145,1.642,1.739,1.5,1.4,5.457,3.67,5.216a2.771,2.771,0,0,0,1.594-1.062c2.077-2.608,2.27-5.843,2.221-9.272C521.134,412.549,520.7,415.253,518.96,417.427Z" transform="translate(-475.957 -303.942)"/>
        <path id="패스_62" data-name="패스 62" d="M499.621,428.129c-.869,2.27-3.139,4.2-5.553,3.815-.29-1.787-.531-3.622-.821-5.409a15.489,15.489,0,0,1-5.457,3.477c-.1.531-.193,1.111-.29,1.642a15.291,15.291,0,0,0,5.747-3.622c.29,1.835.531,3.622.821,5.409,2.415.386,4.684-1.545,5.553-3.815a12.164,12.164,0,0,0,.628-4.926A10.044,10.044,0,0,1,499.621,428.129Z" transform="translate(-462.461 -311.698)"/>
        <path id="패스_63" data-name="패스 63" d="M529.375,373.895a26.783,26.783,0,0,0-.193,4.395,28.219,28.219,0,0,1,.193-2.849c.869-5.94,5.022-11.348,4.636-17.24C533.672,363.512,530.147,368.486,529.375,373.895Z" transform="translate(-484.005 -277.312)"/>
      </g>
      <path id="패스_64" data-name="패스 64" d="M826.561,561.2s-3.284,15.26,11.3,17.1l.917-1.69C838.779,576.557,827.479,565.932,826.561,561.2Z" transform="translate(-427.302 -290.187)" fill="#38d39f"/>
      <path id="패스_65" data-name="패스 65" d="M848.351,568.238l-3.381.724-.338.1s-9.079-7.34-8.934-23.759a39.135,39.135,0,0,0,4.346,6.857C843.57,556.89,847.674,563.216,848.351,568.238Z" transform="translate(-432.189 -281.966)" fill="#38d39f"/>
      <path id="패스_66" data-name="패스 66" d="M855.634,563.782a2.219,2.219,0,0,1-1.835.241C845.106,562,848,533.6,848,533.6c.483.241,1.014,3.863,2.994,8.5C854.523,550.309,858.386,561.706,855.634,563.782Z" transform="translate(-438.314 -275.916)" fill="#38d39f"/>
      <path id="패스_67" data-name="패스 67" d="M888.322,561.2s.579,15.26-14,17.1l-.918-1.69C873.4,576.557,887.4,565.932,888.322,561.2Z" transform="translate(-451.685 -290.187)" fill="#38d39f"/>
      <path id="패스_68" data-name="패스 68" d="M879.157,545.3c.1,16.419-11.638,23.759-11.638,23.759l-.338-.1-3.38-.724c.676-5.022,4.781-11.4,8.354-16.129A35.988,35.988,0,0,1,879.157,545.3Z" transform="translate(-446.721 -281.966)" fill="#38d39f"/>
      <path id="패스_69" data-name="패스 69" d="M864.891,562.285a5.353,5.353,0,0,1-1.932,1.5h0a4.264,4.264,0,0,1-.724.241c-2.125.483-2.9-1.062-2.753-3.67.193-4.684,3.139-12.8,5.795-18.833a23.875,23.875,0,0,1,5.457-7.92C870.685,533.6,870.589,555.717,864.891,562.285Z" transform="translate(-444.48 -275.916)" fill="#38d39f"/>
      <path id="패스_70" data-name="패스 70" d="M860.5,512.9s-9.755,34.528-1.352,39.7S862.67,515.991,860.5,512.9Z" transform="translate(-442.549 -265.212)" fill="#38d39f"/>
      <path id="패스_71" data-name="패스 71" d="M826.561,561.2s-3.284,15.26,11.3,17.1l.917-1.69C838.779,576.557,827.479,565.932,826.561,561.2Z" transform="translate(-427.302 -290.187)" opacity="0.1"/>
      <path id="패스_72" data-name="패스 72" d="M848.351,568.238l-3.381.724-.338.1s-9.079-7.34-8.934-23.759a39.135,39.135,0,0,0,4.346,6.857C843.57,556.89,847.674,563.216,848.351,568.238Z" transform="translate(-432.189 -281.966)" opacity="0.1"/>
      <path id="패스_73" data-name="패스 73" d="M855.634,563.782a2.219,2.219,0,0,1-1.835.241C845.106,562,848,533.6,848,533.6c.483.241,1.014,3.863,2.994,8.5C854.523,550.309,858.386,561.706,855.634,563.782Z" transform="translate(-438.314 -275.916)" opacity="0.1"/>
      <path id="패스_74" data-name="패스 74" d="M888.322,561.2s.579,15.26-14,17.1l-.918-1.69C873.4,576.557,887.4,565.932,888.322,561.2Z" transform="translate(-451.685 -290.187)" opacity="0.1"/>
      <path id="패스_75" data-name="패스 75" d="M879.157,545.3c.1,16.419-11.638,23.759-11.638,23.759l-.338-.1-3.38-.724c.676-5.022,4.781-11.4,8.354-16.129A35.988,35.988,0,0,1,879.157,545.3Z" transform="translate(-446.721 -281.966)" opacity="0.1"/>
      <path id="패스_76" data-name="패스 76" d="M864.891,562.285a5.353,5.353,0,0,1-1.932,1.5h0a4.264,4.264,0,0,1-.724.241c-2.125.483-2.9-1.062-2.753-3.67.193-4.684,3.139-12.8,5.795-18.833a23.875,23.875,0,0,1,5.457-7.92C870.685,533.6,870.589,555.717,864.891,562.285Z" transform="translate(-444.48 -275.916)" opacity="0.1"/>
      <path id="패스_77" data-name="패스 77" d="M860.5,512.9s-9.755,34.528-1.352,39.7S862.67,515.991,860.5,512.9Z" transform="translate(-442.549 -265.212)" opacity="0.1"/>
      <path id="패스_78" data-name="패스 78" d="M826.809,561.2s-1.932,15.26,12.652,17.1l.917-1.69C840.379,576.557,827.727,565.932,826.809,561.2Z" transform="translate(-427.55 -290.187)" fill="#38d39f"/>
      <path id="패스_79" data-name="패스 79" d="M849.7,568.238l-3.381.724-.338.1s-10.431-7.34-10.286-23.759c0,0,2.656,2.849,5.7,6.857C844.922,556.89,849.027,563.216,849.7,568.238Z" transform="translate(-432.19 -281.966)" fill="#38d39f"/>
      <path id="패스_80" data-name="패스 80" d="M855.754,575.529l-3.38.724c-3.236-2.8-4.491-10.189-4.974-16.854C850.974,564.181,855.078,570.507,855.754,575.529Z" transform="translate(-438.241 -289.256)" opacity="0.1"/>
      <path id="패스_81" data-name="패스 81" d="M857.368,563.782a2.219,2.219,0,0,1-1.835.241c-8.693-2.028-7.147-30.423-7.147-30.423.483.241,2.366,3.863,4.346,8.5C856.306,550.309,860.169,561.706,857.368,563.782Z" transform="translate(-438.696 -275.916)" fill="#38d39f"/>
      <path id="패스_82" data-name="패스 82" d="M889.77,561.2s1.932,15.26-12.652,17.1l-.918-1.69C876.2,576.557,888.852,565.932,889.77,561.2Z" transform="translate(-453.133 -290.187)" fill="#38d39f"/>
      <path id="패스_83" data-name="패스 83" d="M880.6,545.3c.1,16.419-10.286,23.759-10.286,23.759l-.338-.1-3.38-.724c.676-5.022,4.781-11.4,8.354-16.129C877.948,548.149,880.6,545.3,880.6,545.3Z" transform="translate(-448.169 -281.966)" fill="#38d39f"/>
      <path id="패스_84" data-name="패스 84" d="M874.854,559.4c-.435,6.181-1.594,13.039-4.346,16.226a3.858,3.858,0,0,1-.628.628l-3.38-.724C867.176,570.507,871.281,564.181,874.854,559.4Z" transform="translate(-448.118 -289.256)" opacity="0.1"/>
      <path id="패스_85" data-name="패스 85" d="M867.69,562.285a5.354,5.354,0,0,1-1.932,1.5h0a4.256,4.256,0,0,1-.724.241c-2.125.483-2.9-1.062-2.753-3.67.193-4.684,3.139-12.8,5.795-18.833,1.883-4.394,3.67-7.678,4.1-7.92C872.133,533.6,873.389,555.717,867.69,562.285Z" transform="translate(-445.928 -275.916)" fill="#38d39f"/>
      <path id="패스_86" data-name="패스 86" d="M861.664,572.883a2.258,2.258,0,0,1-1.352-.435c-4.1-2.56-4.2-12.121-3.187-21.248C860.6,559.41,864.465,570.806,861.664,572.883Z" transform="translate(-442.992 -285.016)" opacity="0.1"/>
      <path id="패스_87" data-name="패스 87" d="M867.709,570.765c-.483,1.014-1.111,1.545-1.932,1.5h0a2.419,2.419,0,0,1-1.159-.435,6.182,6.182,0,0,1-2.318-2.994c.193-4.684,3.139-12.8,5.795-18.834C869.012,558.4,869.3,567.337,867.709,570.765Z" transform="translate(-445.946 -284.396)" opacity="0.1"/>
      <path id="패스_88" data-name="패스 88" d="M861.624,512.9s-8.354,34.528,0,39.7S863.8,515.991,861.624,512.9Z" transform="translate(-443.676 -265.212)" fill="#38d39f"/>
      <path id="패스_89" data-name="패스 89" d="M861.567,591.7H826.7v5.747h5.312l.145.676,2.125,11.2h20.282l2.125-11.2.145-.676h4.733Z" transform="translate(-427.538 -305.958)" fill="#d4dfec"/>
      <path id="패스_90" data-name="패스 90" d="M861.567,591.7H826.7v5.747h5.312l.145.676,2.125,11.2h20.234l2.173-11.2.1-.676h4.781Z" transform="translate(-427.538 -305.958)" opacity="0.1"/>
      <path id="패스_91" data-name="패스 91" d="M865.291,598.7l-.58,3.042-2.125,11.2H842.3l-2.125-11.2-.58-3.042Z" transform="translate(-434.208 -309.578)" fill="#d4dfec"/>
      <path id="패스_92" data-name="패스 92" d="M865.291,598.7l-.58,3.042H840.18l-.58-3.042Z" transform="translate(-434.208 -309.578)" opacity="0.1"/>
      <rect id="사각형_38" data-name="사각형 38" width="34.866" height="5.795" transform="translate(400.515 285.742)" fill="#d4dfec"/>
      <path id="패스_93" data-name="패스 93" d="M251.176,511.019a9.734,9.734,0,0,0-1.159,2.221,3.353,3.353,0,0,1-.241.628l-.435-.145a5.786,5.786,0,0,0-1.835-.145,4.417,4.417,0,0,1,.048-.773c.1-2.753-.241-6.519-2.849-4.926-2.511,1.545-.724,4.153.918,5.795a3.114,3.114,0,0,0,.435.386c-1.449,1.063-1.738,3.477-1.98,6.037s-2.415,5.312-3.815,6.906a3.121,3.121,0,0,0-.386.435,5.167,5.167,0,0,0-4.153-1.062l-.193-.724c-1.159-4.2-3.574-11.445-6.664-13.039l.386-.531c1.3-1.69,2.753-4.25.628-4.877s-2.366,2.173-2.221,4.346c0,.242.048.531.048.773a3.209,3.209,0,0,0-2.27,1.111,2.421,2.421,0,0,0-.338-.386c-1.738-2.076-4.974-5.36-5.988-2.9-.918,2.318,1.932,5.312,3.912,7.1l.145.1c-1.352,5.457,4.491,9.9,7.678,11.831a4.42,4.42,0,0,0,.386.241c-4.346,5.119-7.051,14.729-7.051,14.729l12.218,2.221s8.065-6.954,7.051-13.522h.1c8.065-1.594,9.9-10.238,8.644-15.357l.145-.048a9.269,9.269,0,0,0,3.718-2.8C258.226,511.5,253.494,507.928,251.176,511.019Z" transform="translate(-113.269 -262.22)" fill="#38d39f"/>
      <path id="패스_94" data-name="패스 94" d="M251.176,511.019a9.734,9.734,0,0,0-1.159,2.221,3.353,3.353,0,0,1-.241.628l-.435-.145a5.786,5.786,0,0,0-1.835-.145,4.417,4.417,0,0,1,.048-.773c.1-2.753-.241-6.519-2.849-4.926-2.511,1.545-.724,4.153.918,5.795a3.114,3.114,0,0,0,.435.386c-1.449,1.063-1.738,3.477-1.98,6.037s-2.415,5.312-3.815,6.906a3.121,3.121,0,0,0-.386.435,5.167,5.167,0,0,0-4.153-1.062l-.193-.724c-1.159-4.2-3.574-11.445-6.664-13.039l.386-.531c1.3-1.69,2.753-4.25.628-4.877s-2.366,2.173-2.221,4.346c0,.242.048.531.048.773a3.209,3.209,0,0,0-2.27,1.111,2.421,2.421,0,0,0-.338-.386c-1.738-2.076-4.974-5.36-5.988-2.9-.918,2.318,1.932,5.312,3.912,7.1l.145.1c-1.352,5.457,4.491,9.9,7.678,11.831a4.42,4.42,0,0,0,.386.241c-4.346,5.119-7.051,14.729-7.051,14.729l12.218,2.221s8.065-6.954,7.051-13.522h.1c8.065-1.594,9.9-10.238,8.644-15.357l.145-.048a9.269,9.269,0,0,0,3.718-2.8C258.226,511.5,253.494,507.928,251.176,511.019Z" transform="translate(-113.269 -262.22)" opacity="0.1"/>
      <path id="패스_95" data-name="패스 95" d="M227.657,516.832l-1.449,4.153s-.773-.579-1.787-1.449c-1.98-1.739-4.829-4.781-3.912-7.1.966-2.511,4.2.821,5.988,2.9C227.175,516.2,227.657,516.832,227.657,516.832Z" transform="translate(-113.993 -264.508)" fill="#38d39f"/>
      <path id="패스_96" data-name="패스 96" d="M239.921,512.283c-.435.579-.918,1.111-1.4,1.642a16.612,16.612,0,0,1-.241-2.173c-.1-2.125.1-4.974,2.221-4.346S241.225,510.544,239.921,512.283Z" transform="translate(-123.262 -262.325)" fill="#38d39f"/>
      <path id="패스_97" data-name="패스 97" d="M275.3,513.223c-.048,1.352-.193,2.463-.193,2.463a18.355,18.355,0,0,1-1.787-1.594c-1.594-1.69-3.38-4.25-.918-5.8C275.055,506.7,275.393,510.518,275.3,513.223Z" transform="translate(-140.287 -262.637)" fill="#38d39f"/>
      <path id="패스_98" data-name="패스 98" d="M289.964,517.483a8.853,8.853,0,0,1-3.718,2.8,5.506,5.506,0,0,1-1.256.435l-1.69-2.366a17.606,17.606,0,0,1,.676-2.27,9.734,9.734,0,0,1,1.159-2.221C287.5,510.819,292.234,514.392,289.964,517.483Z" transform="translate(-146.552 -265.11)" fill="#38d39f"/>
      <path id="패스_99" data-name="패스 99" d="M230.777,519.4a17.516,17.516,0,0,1,1.159,1.449L230.487,525s-.773-.579-1.787-1.449a8.37,8.37,0,0,1,1.594-3.67A2.288,2.288,0,0,0,230.777,519.4Z" transform="translate(-118.319 -268.573)" opacity="0.1"/>
      <path id="패스_100" data-name="패스 100" d="M239.942,517.023c-.435.58-.918,1.111-1.4,1.642a16.62,16.62,0,0,1-.241-2.173A2.323,2.323,0,0,1,239.942,517.023Z" transform="translate(-123.283 -267.066)" opacity="0.1"/>
      <path id="패스_101" data-name="패스 101" d="M241.991,534.314l-3.525,1.545c-.628-.338-1.256-.676-1.883-1.062-3.718-2.27-11.2-8.065-6.181-14.826s9.224,5.409,10.866,11.348C241.7,533.106,241.991,534.314,241.991,534.314Z" transform="translate(-118.33 -267.84)" fill="#38d39f"/>
      <path id="패스_102" data-name="패스 102" d="M275.7,519.769a2.759,2.759,0,0,1,1.932-.869c-.048,1.352-.193,2.463-.193,2.463A17.856,17.856,0,0,1,275.7,519.769Z" transform="translate(-142.622 -268.314)" opacity="0.1"/>
      <path id="패스_103" data-name="패스 103" d="M286.246,524a5.518,5.518,0,0,1-1.256.435l-1.69-2.366a17.6,17.6,0,0,1,.676-2.27C285.087,520.428,285.908,522.021,286.246,524Z" transform="translate(-146.552 -268.78)" opacity="0.1"/>
      <path id="패스_104" data-name="패스 104" d="M263.591,539.722a2.425,2.425,0,0,1-.58.1c-11.88,1.787-3.912-4.588-3.912-4.588s.531-.483,1.256-1.3c1.449-1.594,3.574-4.346,3.815-6.906.386-3.863.821-7.485,5.36-6.423C273.973,521.661,274.842,537.453,263.591,539.722Z" transform="translate(-132.686 -269.096)" fill="#38d39f"/>
      <rect id="사각형_39" data-name="사각형 39" width="22.697" height="5.94" transform="translate(108.014 300.181)" fill="#d4dfec"/>
      <rect id="사각형_40" data-name="사각형 40" width="29.651" height="20.814" transform="translate(104.393 280.768)" fill="#d4dfec"/>
      <rect id="사각형_41" data-name="사각형 41" width="22.697" height="5.94" transform="translate(108.014 300.181)" opacity="0.1"/>
      <rect id="사각형_42" data-name="사각형 42" width="29.651" height="20.814" transform="translate(104.393 280.768)" opacity="0.1"/>
      <rect id="사각형_43" data-name="사각형 43" width="22.697" height="5.94" transform="translate(109.463 300.181)" fill="#d4dfec"/>
      <path id="패스_105" data-name="패스 105" d="M249.636,545.6c.483,1.787.773,2.994.773,2.994l-3.525,1.545c-.628-.338-1.256-.676-1.883-1.062A8.915,8.915,0,0,1,249.636,545.6Z" transform="translate(-126.748 -282.121)" opacity="0.1"/>
      <path id="패스_106" data-name="패스 106" d="M263.591,554.195a2.425,2.425,0,0,1-.58.1c-11.88,1.787-3.912-4.588-3.912-4.588s.531-.483,1.256-1.3A7.83,7.83,0,0,1,263.591,554.195Z" transform="translate(-132.686 -283.568)" opacity="0.1"/>
      <path id="패스_107" data-name="패스 107" d="M231.2,564.763s6.664-23.808,15.984-16.467-3.815,18.641-3.815,18.641Z" transform="translate(-119.612 -282.788)" fill="#38d39f"/>
      <circle id="타원_15" data-name="타원 15" cx="0.724" cy="0.724" r="0.724" transform="translate(114.244 255.125)" opacity="0.1"/>
      <circle id="타원_16" data-name="타원 16" cx="0.724" cy="0.724" r="0.724" transform="translate(114.147 258.602)" opacity="0.1"/>
      <circle id="타원_17" data-name="타원 17" cx="0.724" cy="0.724" r="0.724" transform="translate(135.782 255.801)" opacity="0.1"/>
      <circle id="타원_18" data-name="타원 18" cx="0.724" cy="0.724" r="0.724" transform="translate(118.397 273.669)" opacity="0.1"/>
      <circle id="타원_19" data-name="타원 19" cx="0.724" cy="0.724" r="0.724" transform="translate(134.237 261.596)" opacity="0.1"/>
      <circle id="타원_20" data-name="타원 20" cx="0.724" cy="0.724" r="0.724" transform="translate(126.558 269.323)" opacity="0.1"/>
      <circle id="타원_21" data-name="타원 21" cx="0.724" cy="0.724" r="0.724" transform="translate(116.803 256.622)" opacity="0.1"/>
      <circle id="타원_22" data-name="타원 22" cx="0.724" cy="0.724" r="0.724" transform="translate(133.754 258.071)" opacity="0.1"/>
      <circle id="타원_23" data-name="타원 23" cx="0.724" cy="0.724" r="0.724" transform="translate(131.194 263.817)" opacity="0.1"/>
      <circle id="타원_24" data-name="타원 24" cx="0.724" cy="0.724" r="0.724" transform="translate(123.318 274.484) rotate(-85.935)" opacity="0.1"/>
      <circle id="타원_25" data-name="타원 25" cx="0.724" cy="0.724" r="0.724" transform="translate(121.729 269.419)" opacity="0.1"/>
      <circle id="타원_26" data-name="타원 26" cx="0.724" cy="0.724" r="0.724" transform="translate(117.914 261.161)" opacity="0.1"/>
      <rect id="사각형_44" data-name="사각형 44" width="22.697" height="2.173" transform="translate(109.463 300.181)" opacity="0.1"/>
      <rect id="사각형_45" data-name="사각형 45" width="29.651" height="20.814" transform="translate(105.89 280.768)" fill="#d4dfec"/>
      <circle id="타원_27" data-name="타원 27" cx="0.724" cy="0.724" r="0.724" transform="translate(124.385 276.47)" opacity="0.1"/>
      <circle id="타원_28" data-name="타원 28" cx="0.724" cy="0.724" r="0.724" transform="translate(119.894 277.387)" opacity="0.1"/>
    </g>
    <circle id="타원_43" data-name="타원 43" cx="0.5" cy="0.5" r="0.5" transform="translate(1862 113)" fill="#fff"/>
    <g id="leaves" transform="translate(-327.733 289.343) rotate(-59)" opacity="0.8">
      <path id="패스_202-2" data-name="패스 202" d="M1062.557,282.14s-17.841-7.263-74.521,18.788-63.627,22.735-78.311,18.788-22.893-4.894-38.524-26.682c0,0-11.052-60.154-21.788-69.469s-56.523,5.368-56.523,5.368-54.628,12.631-65.206-60.47c0,0,7.421-55.1-2.684-72,0,0,20.367,8.842,53.839-5.368s60.311,15.315,60.311,15.315,8.526,21.946,7.578,34.892,4.421,18,20.525,11.683c0,0,7.894-11.21-3.315-29.682s-19.1-32.208-15.946-46.576,12-34.261,40.734-44.208,67.732-11.841,86.362-19.578S998.613,0,998.613,0s-11.525,11.526,15.631,60.47,9.789,70.1,9.789,70.1-14.367,34.419-78.152,31.577c0,0-61.418,2.21-27.947,28.261,0,0,21.473-4.421,53.523-14.525s55.1,31.893,60.944,61.1C1038.085,266.193,1062.557,282.14,1062.557,282.14Z" transform="translate(-725)" fill="#38d39f"/>
      <path id="패스_203-2" data-name="패스 203" d="M904.27,23.458l.316-.158c2.526,9.315-24.945,46.892-48.47,76.574l-.315-.158C889.113,57.877,906.323,30.721,904.27,23.458Z" transform="translate(-649.287 13.487)" fill="#444053"/>
      <path id="패스_204-2" data-name="패스 204" d="M880.627,71.4l.158.316c-18.788,23.841-42.313,52.26-61.1,73.258-1.736,2.052-3.631,4.1-5.21,6.315l-.473-.474c1.737-2.21,3.473-4.263,5.369-6.315C838,123.5,862,95.241,880.627,71.4Z" transform="translate(-673.483 41.33)" fill="#444053"/>
      <path id="패스_205-2" data-name="패스 205" d="M830.176,121.4l.316.632c-34.261,42.787-36.629,109.256-36.629,109.888l-7.262-8.21C786.758,222.92,795.6,164.5,830.176,121.4Z" transform="translate(-689.343 70.272)" fill="#444053"/>
      <path id="패스_206-2" data-name="패스 206" d="M1011.425,215.4s-40.418-21-72-13.42S836.962,175.3,836.962,175.3s-30.156-12.315-36.155-26.209c0,0-20.683-21.946-21.788-33.156S757.7,76.147,744.6,75.2" transform="translate(-713.655 43.529)" fill="none" stroke="#444053" stroke-miterlimit="10" stroke-width="1"/>
      <path id="패스_207-2" data-name="패스 207" d="M916.569,187.682S896.2,173.946,898.57,158" transform="translate(-624.641 91.458)" fill="none" stroke="#444053" stroke-miterlimit="10" stroke-width="1"/>
      <path id="패스_208-2" data-name="패스 208" d="M901.85,207.2s-29.208-10.578-32.05-52.1" transform="translate(-641.183 89.779)" fill="none" stroke="#444053" stroke-miterlimit="10" stroke-width="1"/>
      <path id="패스_209-2" data-name="패스 209" d="M867.809,218.17s-27.787-23.051-18.63-63.47" transform="translate(-654.192 89.547)" fill="none" stroke="#444053" stroke-miterlimit="10" stroke-width="1"/>
      <path id="패스_210-2" data-name="패스 210" d="M827.746,211.2s-18.472-38.84-2.053-64.1" transform="translate(-670.651 85.148)" fill="none" stroke="#444053" stroke-miterlimit="10" stroke-width="1"/>
      <path id="패스_211-2" data-name="패스 211" d="M920.2,147.8s-21,6.631-16.578,17.841" transform="translate(-621.958 85.553)" fill="none" stroke="#444053" stroke-miterlimit="10" stroke-width="1"/>
      <path id="패스_212-2" data-name="패스 212" d="M908.393,123.6s-28.261,9-28.893,48.786" transform="translate(-635.568 71.545)" fill="none" stroke="#444053" stroke-miterlimit="10" stroke-width="1"/>
      <path id="패스_213-2" data-name="패스 213" d="M881.677,117.7s-25.735,31.735-23.841,60.47" transform="translate(-648.166 68.13)" fill="none" stroke="#444053" stroke-miterlimit="10" stroke-width="1"/>
      <path id="패스_214-2" data-name="패스 214" d="M852.67,125.6s-25.577,24.314-22.262,37.892" transform="translate(-664.156 72.703)" fill="none" stroke="#444053" stroke-miterlimit="10" stroke-width="1"/>
      <path id="패스_215-2" data-name="패스 215" d="M844.714,121.531s-23.841,4.263-27.314-3.631" transform="translate(-671.514 68.246)" fill="none" stroke="#444053" stroke-miterlimit="10" stroke-width="1"/>
      <path id="패스_216-2" data-name="패스 216" d="M815,101.9s12.157,15.946,15.157,12.473" transform="translate(-672.904 58.984)" fill="none" stroke="#444053" stroke-miterlimit="10" stroke-width="1"/>
      <path id="패스_217-2" data-name="패스 217" d="M917.89,100.536S857.578,104.957,844,86.8" transform="translate(-656.117 50.244)" fill="none" stroke="#444053" stroke-miterlimit="10" stroke-width="1"/>
      <path id="패스_218-2" data-name="패스 218" d="M807,50.8s28.262,60.628,48.787,68.364" transform="translate(-677.535 29.405)" fill="none" stroke="#444053" stroke-miterlimit="10" stroke-width="1"/>
      <path id="패스_219-2" data-name="패스 219" d="M825.8,32.5s17.368,55.733,38.84,73.258" transform="translate(-666.653 18.812)" fill="none" stroke="#444053" stroke-miterlimit="10" stroke-width="1"/>
      <path id="패스_220-2" data-name="패스 220" d="M933.759,66.358S887.972,85.936,860.5,66.2" transform="translate(-646.567 38.32)" fill="none" stroke="#444053" stroke-miterlimit="10" stroke-width="0.75"/>
      <path id="패스_221-2" data-name="패스 221" d="M851.6,25s10.42,41.05,24.63,51" transform="translate(-651.718 14.471)" fill="none" stroke="#444053" stroke-miterlimit="10" stroke-width="0.75"/>
      <path id="패스_222-2" data-name="패스 222" d="M915.466,37.2s-25.735,9.789-35.366,2.21" transform="translate(-635.221 21.533)" fill="none" stroke="#444053" stroke-miterlimit="10" stroke-width="0.75"/>
      <path id="패스_223-2" data-name="패스 223" d="M804.589,110.4s0,35.84-9.789,38.366" transform="translate(-684.597 63.905)" fill="none" stroke="#444053" stroke-miterlimit="10" stroke-width="1"/>
      <path id="패스_224-2" data-name="패스 224" d="M750.6,145.778s38.682,3.316,56.522-16.578" transform="translate(-710.181 74.787)" fill="none" stroke="#444053" stroke-miterlimit="10" stroke-width="1"/>
      <path id="패스_225-2" data-name="패스 225" d="M807.608,83.6s-9.315,36.313-35.208,46.1" transform="translate(-697.563 48.391)" fill="none" stroke="#444053" stroke-miterlimit="10" stroke-width="1"/>
      <path id="패스_226-2" data-name="패스 226" d="M735.9,120.883s27.314,9.473,51-14.683" transform="translate(-718.69 61.473)" fill="none" stroke="#444053" stroke-miterlimit="10" stroke-width="1"/>
      <path id="패스_227-2" data-name="패스 227" d="M782.52,63.8s-2.526,30.787-19.42,45.155" transform="translate(-702.946 36.93)" fill="none" stroke="#444053" stroke-miterlimit="10" stroke-width="1"/>
      <path id="패스_228-2" data-name="패스 228" d="M736.6,88.463s22.735.158,28.1-7.263" transform="translate(-718.285 47.002)" fill="none" stroke="#444053" stroke-miterlimit="10" stroke-width="1"/>
    </g>
    <g id="leaves-2" data-name="leaves" transform="translate(-327.733 289.343) rotate(-59)" opacity="0.8">
      <path id="패스_203-3" data-name="패스 203" d="M904.27,23.458l.316-.158c2.526,9.315-24.945,46.892-48.47,76.574l-.315-.158C889.113,57.877,906.323,30.721,904.27,23.458Z" transform="translate(-649.287 13.487)" fill="#444053"/>
      <path id="패스_204-3" data-name="패스 204" d="M880.627,71.4l.158.316c-18.788,23.841-42.313,52.26-61.1,73.258-1.736,2.052-3.631,4.1-5.21,6.315l-.473-.474c1.737-2.21,3.473-4.263,5.369-6.315C838,123.5,862,95.241,880.627,71.4Z" transform="translate(-673.483 41.33)" fill="#444053"/>
      <path id="패스_205-3" data-name="패스 205" d="M830.176,121.4l.316.632c-34.261,42.787-36.629,109.256-36.629,109.888l-7.262-8.21C786.758,222.92,795.6,164.5,830.176,121.4Z" transform="translate(-689.343 70.272)" fill="#444053"/>
      <path id="패스_206-3" data-name="패스 206" d="M1011.425,215.4s-40.418-21-72-13.42S836.962,175.3,836.962,175.3s-30.156-12.315-36.155-26.209c0,0-20.683-21.946-21.788-33.156S757.7,76.147,744.6,75.2" transform="translate(-713.655 43.529)" fill="none" stroke="#444053" stroke-miterlimit="10" stroke-width="1"/>
      <path id="패스_207-3" data-name="패스 207" d="M916.569,187.682S896.2,173.946,898.57,158" transform="translate(-624.641 91.458)" fill="none" stroke="#444053" stroke-miterlimit="10" stroke-width="1"/>
      <path id="패스_208-3" data-name="패스 208" d="M901.85,207.2s-29.208-10.578-32.05-52.1" transform="translate(-641.183 89.779)" fill="none" stroke="#444053" stroke-miterlimit="10" stroke-width="1"/>
      <path id="패스_209-3" data-name="패스 209" d="M867.809,218.17s-27.787-23.051-18.63-63.47" transform="translate(-654.192 89.547)" fill="none" stroke="#444053" stroke-miterlimit="10" stroke-width="1"/>
      <path id="패스_210-3" data-name="패스 210" d="M827.746,211.2s-18.472-38.84-2.053-64.1" transform="translate(-670.651 85.148)" fill="none" stroke="#444053" stroke-miterlimit="10" stroke-width="1"/>
      <path id="패스_211-3" data-name="패스 211" d="M920.2,147.8s-21,6.631-16.578,17.841" transform="translate(-621.958 85.553)" fill="none" stroke="#444053" stroke-miterlimit="10" stroke-width="1"/>
      <path id="패스_212-3" data-name="패스 212" d="M908.393,123.6s-28.261,9-28.893,48.786" transform="translate(-635.568 71.545)" fill="none" stroke="#444053" stroke-miterlimit="10" stroke-width="1"/>
      <path id="패스_213-3" data-name="패스 213" d="M881.677,117.7s-25.735,31.735-23.841,60.47" transform="translate(-648.166 68.13)" fill="none" stroke="#444053" stroke-miterlimit="10" stroke-width="1"/>
      <path id="패스_214-3" data-name="패스 214" d="M852.67,125.6s-25.577,24.314-22.262,37.892" transform="translate(-664.156 72.703)" fill="none" stroke="#444053" stroke-miterlimit="10" stroke-width="1"/>
      <path id="패스_215-3" data-name="패스 215" d="M844.714,121.531s-23.841,4.263-27.314-3.631" transform="translate(-671.514 68.246)" fill="none" stroke="#444053" stroke-miterlimit="10" stroke-width="1"/>
      <path id="패스_216-3" data-name="패스 216" d="M815,101.9s12.157,15.946,15.157,12.473" transform="translate(-672.904 58.984)" fill="none" stroke="#444053" stroke-miterlimit="10" stroke-width="1"/>
      <path id="패스_217-3" data-name="패스 217" d="M917.89,100.536S857.578,104.957,844,86.8" transform="translate(-656.117 50.244)" fill="none" stroke="#444053" stroke-miterlimit="10" stroke-width="1"/>
      <path id="패스_218-3" data-name="패스 218" d="M807,50.8s28.262,60.628,48.787,68.364" transform="translate(-677.535 29.405)" fill="none" stroke="#444053" stroke-miterlimit="10" stroke-width="1"/>
      <path id="패스_219-3" data-name="패스 219" d="M825.8,32.5s17.368,55.733,38.84,73.258" transform="translate(-666.653 18.812)" fill="none" stroke="#444053" stroke-miterlimit="10" stroke-width="1"/>
      <path id="패스_220-3" data-name="패스 220" d="M933.759,66.358S887.972,85.936,860.5,66.2" transform="translate(-646.567 38.32)" fill="none" stroke="#444053" stroke-miterlimit="10" stroke-width="0.75"/>
      <path id="패스_221-3" data-name="패스 221" d="M851.6,25s10.42,41.05,24.63,51" transform="translate(-651.718 14.471)" fill="none" stroke="#444053" stroke-miterlimit="10" stroke-width="0.75"/>
      <path id="패스_222-3" data-name="패스 222" d="M915.466,37.2s-25.735,9.789-35.366,2.21" transform="translate(-635.221 21.533)" fill="none" stroke="#444053" stroke-miterlimit="10" stroke-width="0.75"/>
      <path id="패스_223-3" data-name="패스 223" d="M804.589,110.4s0,35.84-9.789,38.366" transform="translate(-684.597 63.905)" fill="none" stroke="#444053" stroke-miterlimit="10" stroke-width="1"/>
      <path id="패스_224-3" data-name="패스 224" d="M750.6,145.778s38.682,3.316,56.522-16.578" transform="translate(-710.181 74.787)" fill="none" stroke="#444053" stroke-miterlimit="10" stroke-width="1"/>
      <path id="패스_225-3" data-name="패스 225" d="M807.608,83.6s-9.315,36.313-35.208,46.1" transform="translate(-697.563 48.391)" fill="none" stroke="#444053" stroke-miterlimit="10" stroke-width="1"/>
      <path id="패스_226-3" data-name="패스 226" d="M735.9,120.883s27.314,9.473,51-14.683" transform="translate(-718.69 61.473)" fill="none" stroke="#444053" stroke-miterlimit="10" stroke-width="1"/>
      <path id="패스_227-3" data-name="패스 227" d="M782.52,63.8s-2.526,30.787-19.42,45.155" transform="translate(-702.946 36.93)" fill="none" stroke="#444053" stroke-miterlimit="10" stroke-width="1"/>
      <path id="패스_228-3" data-name="패스 228" d="M736.6,88.463s22.735.158,28.1-7.263" transform="translate(-718.285 47.002)" fill="none" stroke="#444053" stroke-miterlimit="10" stroke-width="1"/>
    </g>
    <g id="leaves-3" data-name="leaves" transform="translate(1694.899 913.953) rotate(-59)" opacity="0.8">
      <path id="패스_202-3" data-name="패스 202" d="M1062.557,282.14s-17.841-7.263-74.521,18.788-63.627,22.735-78.311,18.788-22.893-4.894-38.524-26.682c0,0-11.052-60.154-21.788-69.469s-56.523,5.368-56.523,5.368-54.628,12.631-65.206-60.47c0,0,7.421-55.1-2.684-72,0,0,20.367,8.842,53.839-5.368s60.311,15.315,60.311,15.315,8.526,21.946,7.578,34.892,4.421,18,20.525,11.683c0,0,7.894-11.21-3.315-29.682s-19.1-32.208-15.946-46.576,12-34.261,40.734-44.208,67.732-11.841,86.362-19.578S998.613,0,998.613,0s-11.525,11.526,15.631,60.47,9.789,70.1,9.789,70.1-14.367,34.419-78.152,31.577c0,0-61.418,2.21-27.947,28.261,0,0,21.473-4.421,53.523-14.525s55.1,31.893,60.944,61.1C1038.085,266.193,1062.557,282.14,1062.557,282.14Z" transform="translate(-725)" fill="#38d39f"/>
      <path id="패스_203-4" data-name="패스 203" d="M904.27,23.458l.316-.158c2.526,9.315-24.945,46.892-48.47,76.574l-.315-.158C889.113,57.877,906.323,30.721,904.27,23.458Z" transform="translate(-649.287 13.487)" fill="#444053"/>
      <path id="패스_204-4" data-name="패스 204" d="M880.627,71.4l.158.316c-18.788,23.841-42.313,52.26-61.1,73.258-1.736,2.052-3.631,4.1-5.21,6.315l-.473-.474c1.737-2.21,3.473-4.263,5.369-6.315C838,123.5,862,95.241,880.627,71.4Z" transform="translate(-673.483 41.33)" fill="#444053"/>
      <path id="패스_205-4" data-name="패스 205" d="M830.176,121.4l.316.632c-34.261,42.787-36.629,109.256-36.629,109.888l-7.262-8.21C786.758,222.92,795.6,164.5,830.176,121.4Z" transform="translate(-689.343 70.272)" fill="#444053"/>
      <path id="패스_206-4" data-name="패스 206" d="M1011.425,215.4s-40.418-21-72-13.42S836.962,175.3,836.962,175.3s-30.156-12.315-36.155-26.209c0,0-20.683-21.946-21.788-33.156S757.7,76.147,744.6,75.2" transform="translate(-713.655 43.529)" fill="none" stroke="#444053" stroke-miterlimit="10" stroke-width="1"/>
      <path id="패스_207-4" data-name="패스 207" d="M916.569,187.682S896.2,173.946,898.57,158" transform="translate(-624.641 91.458)" fill="none" stroke="#444053" stroke-miterlimit="10" stroke-width="1"/>
      <path id="패스_208-4" data-name="패스 208" d="M901.85,207.2s-29.208-10.578-32.05-52.1" transform="translate(-641.183 89.779)" fill="none" stroke="#444053" stroke-miterlimit="10" stroke-width="1"/>
      <path id="패스_209-4" data-name="패스 209" d="M867.809,218.17s-27.787-23.051-18.63-63.47" transform="translate(-654.192 89.547)" fill="none" stroke="#444053" stroke-miterlimit="10" stroke-width="1"/>
      <path id="패스_210-4" data-name="패스 210" d="M827.746,211.2s-18.472-38.84-2.053-64.1" transform="translate(-670.651 85.148)" fill="none" stroke="#444053" stroke-miterlimit="10" stroke-width="1"/>
      <path id="패스_211-4" data-name="패스 211" d="M920.2,147.8s-21,6.631-16.578,17.841" transform="translate(-621.958 85.553)" fill="none" stroke="#444053" stroke-miterlimit="10" stroke-width="1"/>
      <path id="패스_212-4" data-name="패스 212" d="M908.393,123.6s-28.261,9-28.893,48.786" transform="translate(-635.568 71.545)" fill="none" stroke="#444053" stroke-miterlimit="10" stroke-width="1"/>
      <path id="패스_213-4" data-name="패스 213" d="M881.677,117.7s-25.735,31.735-23.841,60.47" transform="translate(-648.166 68.13)" fill="none" stroke="#444053" stroke-miterlimit="10" stroke-width="1"/>
      <path id="패스_214-4" data-name="패스 214" d="M852.67,125.6s-25.577,24.314-22.262,37.892" transform="translate(-664.156 72.703)" fill="none" stroke="#444053" stroke-miterlimit="10" stroke-width="1"/>
      <path id="패스_215-4" data-name="패스 215" d="M844.714,121.531s-23.841,4.263-27.314-3.631" transform="translate(-671.514 68.246)" fill="none" stroke="#444053" stroke-miterlimit="10" stroke-width="1"/>
      <path id="패스_216-4" data-name="패스 216" d="M815,101.9s12.157,15.946,15.157,12.473" transform="translate(-672.904 58.984)" fill="none" stroke="#444053" stroke-miterlimit="10" stroke-width="1"/>
      <path id="패스_217-4" data-name="패스 217" d="M917.89,100.536S857.578,104.957,844,86.8" transform="translate(-656.117 50.244)" fill="none" stroke="#444053" stroke-miterlimit="10" stroke-width="1"/>
      <path id="패스_218-4" data-name="패스 218" d="M807,50.8s28.262,60.628,48.787,68.364" transform="translate(-677.535 29.405)" fill="none" stroke="#444053" stroke-miterlimit="10" stroke-width="1"/>
      <path id="패스_219-4" data-name="패스 219" d="M825.8,32.5s17.368,55.733,38.84,73.258" transform="translate(-666.653 18.812)" fill="none" stroke="#444053" stroke-miterlimit="10" stroke-width="1"/>
      <path id="패스_220-4" data-name="패스 220" d="M933.759,66.358S887.972,85.936,860.5,66.2" transform="translate(-646.567 38.32)" fill="none" stroke="#444053" stroke-miterlimit="10" stroke-width="0.75"/>
      <path id="패스_221-4" data-name="패스 221" d="M851.6,25s10.42,41.05,24.63,51" transform="translate(-651.718 14.471)" fill="none" stroke="#444053" stroke-miterlimit="10" stroke-width="0.75"/>
      <path id="패스_222-4" data-name="패스 222" d="M915.466,37.2s-25.735,9.789-35.366,2.21" transform="translate(-635.221 21.533)" fill="none" stroke="#444053" stroke-miterlimit="10" stroke-width="0.75"/>
      <path id="패스_223-4" data-name="패스 223" d="M804.589,110.4s0,35.84-9.789,38.366" transform="translate(-684.597 63.905)" fill="none" stroke="#444053" stroke-miterlimit="10" stroke-width="1"/>
      <path id="패스_224-4" data-name="패스 224" d="M750.6,145.778s38.682,3.316,56.522-16.578" transform="translate(-710.181 74.787)" fill="none" stroke="#444053" stroke-miterlimit="10" stroke-width="1"/>
      <path id="패스_225-4" data-name="패스 225" d="M807.608,83.6s-9.315,36.313-35.208,46.1" transform="translate(-697.563 48.391)" fill="none" stroke="#444053" stroke-miterlimit="10" stroke-width="1"/>
      <path id="패스_226-4" data-name="패스 226" d="M735.9,120.883s27.314,9.473,51-14.683" transform="translate(-718.69 61.473)" fill="none" stroke="#444053" stroke-miterlimit="10" stroke-width="1"/>
      <path id="패스_227-4" data-name="패스 227" d="M782.52,63.8s-2.526,30.787-19.42,45.155" transform="translate(-702.946 36.93)" fill="none" stroke="#444053" stroke-miterlimit="10" stroke-width="1"/>
      <path id="패스_228-4" data-name="패스 228" d="M736.6,88.463s22.735.158,28.1-7.263" transform="translate(-718.285 47.002)" fill="none" stroke="#444053" stroke-miterlimit="10" stroke-width="1"/>
    </g>
  </g>
</svg>
