<svg xmlns="http://www.w3.org/2000/svg" xmlns:xlink="http://www.w3.org/1999/xlink" width="1920" height="1080" viewBox="0 0 1920 1080">
  <defs>
    <clipPath id="clip-질문게시판">
      <rect width="1920" height="1080"/>
    </clipPath>
  </defs>
  <g id="질문게시판" clip-path="url(#clip-질문게시판)">
    <rect width="1920" height="1080" fill="#fff"/>
    <g id="leaves" transform="translate(1694.899 517.037) rotate(-59)" opacity="0.8">
      <path id="패스_202" data-name="패스 202" d="M1062.557,282.14s-17.841-7.263-74.521,18.788-63.627,22.735-78.311,18.788-22.893-4.894-38.524-26.682c0,0-11.052-60.154-21.788-69.469s-56.523,5.368-56.523,5.368-54.628,12.631-65.206-60.47c0,0,7.421-55.1-2.684-72,0,0,20.367,8.842,53.839-5.368s60.311,15.315,60.311,15.315,8.526,21.946,7.578,34.892,4.421,18,20.525,11.683c0,0,7.894-11.21-3.315-29.682s-19.1-32.208-15.946-46.576,12-34.261,40.734-44.208,67.732-11.841,86.362-19.578S998.613,0,998.613,0s-11.525,11.526,15.631,60.47,9.789,70.1,9.789,70.1-14.367,34.419-78.152,31.577c0,0-61.418,2.21-27.947,28.261,0,0,21.473-4.421,53.523-14.525s55.1,31.893,60.944,61.1C1038.085,266.193,1062.557,282.14,1062.557,282.14Z" transform="translate(-725)" fill="#38d39f"/>
      <path id="패스_203" data-name="패스 203" d="M904.27,23.458l.316-.158c2.526,9.315-24.945,46.892-48.47,76.574l-.315-.158C889.113,57.877,906.323,30.721,904.27,23.458Z" transform="translate(-649.287 13.487)" fill="#444053"/>
      <path id="패스_204" data-name="패스 204" d="M880.627,71.4l.158.316c-18.788,23.841-42.313,52.26-61.1,73.258-1.736,2.052-3.631,4.1-5.21,6.315l-.473-.474c1.737-2.21,3.473-4.263,5.369-6.315C838,123.5,862,95.241,880.627,71.4Z" transform="translate(-673.483 41.33)" fill="#444053"/>
      <path id="패스_205" data-name="패스 205" d="M830.176,121.4l.316.632c-34.261,42.787-36.629,109.256-36.629,109.888l-7.262-8.21C786.758,222.92,795.6,164.5,830.176,121.4Z" transform="translate(-689.343 70.272)" fill="#444053"/>
      <path id="패스_206" data-name="패스 206" d="M1011.425,215.4s-40.418-21-72-13.42S836.962,175.3,836.962,175.3s-30.156-12.315-36.155-26.209c0,0-20.683-21.946-21.788-33.156S757.7,76.147,744.6,75.2" transform="translate(-713.655 43.529)" fill="none" stroke="#444053" stroke-miterlimit="10" stroke-width="1"/>
      <path id="패스_207" data-name="패스 207" d="M916.569,187.682S896.2,173.946,898.57,158" transform="translate(-624.641 91.458)" fill="none" stroke="#444053" stroke-miterlimit="10" stroke-width="1"/>
      <path id="패스_208" data-name="패스 208" d="M901.85,207.2s-29.208-10.578-32.05-52.1" transform="translate(-641.183 89.779)" fill="none" stroke="#444053" stroke-miterlimit="10" stroke-width="1"/>
      <path id="패스_209" data-name="패스 209" d="M867.809,218.17s-27.787-23.051-18.63-63.47" transform="translate(-654.192 89.547)" fill="none" stroke="#444053" stroke-miterlimit="10" stroke-width="1"/>
      <path id="패스_210" data-name="패스 210" d="M827.746,211.2s-18.472-38.84-2.053-64.1" transform="translate(-670.651 85.148)" fill="none" stroke="#444053" stroke-miterlimit="10" stroke-width="1"/>
      <path id="패스_211" data-name="패스 211" d="M920.2,147.8s-21,6.631-16.578,17.841" transform="translate(-621.958 85.553)" fill="none" stroke="#444053" stroke-miterlimit="10" stroke-width="1"/>
      <path id="패스_212" data-name="패스 212" d="M908.393,123.6s-28.261,9-28.893,48.786" transform="translate(-635.568 71.545)" fill="none" stroke="#444053" stroke-miterlimit="10" stroke-width="1"/>
      <path id="패스_213" data-name="패스 213" d="M881.677,117.7s-25.735,31.735-23.841,60.47" transform="translate(-648.166 68.13)" fill="none" stroke="#444053" stroke-miterlimit="10" stroke-width="1"/>
      <path id="패스_214" data-name="패스 214" d="M852.67,125.6s-25.577,24.314-22.262,37.892" transform="translate(-664.156 72.703)" fill="none" stroke="#444053" stroke-miterlimit="10" stroke-width="1"/>
      <path id="패스_215" data-name="패스 215" d="M844.714,121.531s-23.841,4.263-27.314-3.631" transform="translate(-671.514 68.246)" fill="none" stroke="#444053" stroke-miterlimit="10" stroke-width="1"/>
      <path id="패스_216" data-name="패스 216" d="M815,101.9s12.157,15.946,15.157,12.473" transform="translate(-672.904 58.984)" fill="none" stroke="#444053" stroke-miterlimit="10" stroke-width="1"/>
      <path id="패스_217" data-name="패스 217" d="M917.89,100.536S857.578,104.957,844,86.8" transform="translate(-656.117 50.244)" fill="none" stroke="#444053" stroke-miterlimit="10" stroke-width="1"/>
      <path id="패스_218" data-name="패스 218" d="M807,50.8s28.262,60.628,48.787,68.364" transform="translate(-677.535 29.405)" fill="none" stroke="#444053" stroke-miterlimit="10" stroke-width="1"/>
      <path id="패스_219" data-name="패스 219" d="M825.8,32.5s17.368,55.733,38.84,73.258" transform="translate(-666.653 18.812)" fill="none" stroke="#444053" stroke-miterlimit="10" stroke-width="1"/>
      <path id="패스_220" data-name="패스 220" d="M933.759,66.358S887.972,85.936,860.5,66.2" transform="translate(-646.567 38.32)" fill="none" stroke="#444053" stroke-miterlimit="10" stroke-width="0.75"/>
      <path id="패스_221" data-name="패스 221" d="M851.6,25s10.42,41.05,24.63,51" transform="translate(-651.718 14.471)" fill="none" stroke="#444053" stroke-miterlimit="10" stroke-width="0.75"/>
      <path id="패스_222" data-name="패스 222" d="M915.466,37.2s-25.735,9.789-35.366,2.21" transform="translate(-635.221 21.533)" fill="none" stroke="#444053" stroke-miterlimit="10" stroke-width="0.75"/>
      <path id="패스_223" data-name="패스 223" d="M804.589,110.4s0,35.84-9.789,38.366" transform="translate(-684.597 63.905)" fill="none" stroke="#444053" stroke-miterlimit="10" stroke-width="1"/>
      <path id="패스_224" data-name="패스 224" d="M750.6,145.778s38.682,3.316,56.522-16.578" transform="translate(-710.181 74.787)" fill="none" stroke="#444053" stroke-miterlimit="10" stroke-width="1"/>
      <path id="패스_225" data-name="패스 225" d="M807.608,83.6s-9.315,36.313-35.208,46.1" transform="translate(-697.563 48.391)" fill="none" stroke="#444053" stroke-miterlimit="10" stroke-width="1"/>
      <path id="패스_226" data-name="패스 226" d="M735.9,120.883s27.314,9.473,51-14.683" transform="translate(-718.69 61.473)" fill="none" stroke="#444053" stroke-miterlimit="10" stroke-width="1"/>
      <path id="패스_227" data-name="패스 227" d="M782.52,63.8s-2.526,30.787-19.42,45.155" transform="translate(-702.946 36.93)" fill="none" stroke="#444053" stroke-miterlimit="10" stroke-width="1"/>
      <path id="패스_228" data-name="패스 228" d="M736.6,88.463s22.735.158,28.1-7.263" transform="translate(-718.285 47.002)" fill="none" stroke="#444053" stroke-miterlimit="10" stroke-width="1"/>
    </g>
    <g id="Left_Leaves" data-name="Left Leaves" transform="matrix(0.995, 0.105, -0.105, 0.995, 82.259, 77.165)">
      <g id="그룹_11" data-name="그룹 11" transform="matrix(0.966, -0.259, 0.259, 0.966, -122.455, 765.782)" opacity="0.8">
        <path id="패스_202-2" data-name="패스 202" d="M926.908,168.76S916.236,164.416,882.333,180s-38.058,13.6-46.841,11.238-13.694-2.928-23.043-15.96c0,0-6.611-35.981-13.032-41.553s-33.809,3.211-33.809,3.211-32.675,7.555-39-36.17c0,0,4.439-32.959-1.605-43.064,0,0,12.182,5.289,32.2-3.211s36.075,9.16,36.075,9.16,5.1,13.127,4.533,20.871,2.645,10.766,12.277,6.988c0,0,4.722-6.705-1.983-17.754S796.678,54.491,798.567,45.9s7.177-20.493,24.365-26.443,40.513-7.083,51.657-11.71S888.66,0,888.66,0s-6.894,6.894,9.349,36.17,5.855,41.93,5.855,41.93-8.594,20.587-46.746,18.888c0,0-36.737,1.322-16.716,16.9,0,0,12.844-2.644,32.015-8.688s32.959,19.076,36.453,36.547C912.27,159.222,926.908,168.76,926.908,168.76Z" transform="translate(-725)" fill="#38d39f"/>
        <path id="패스_203-2" data-name="패스 203" d="M884.792,23.394l.189-.094c1.511,5.572-14.921,28.048-28.992,45.8l-.189-.094C875.726,43.982,886.02,27.739,884.792,23.394Z" transform="translate(-732.276 -1.296)" fill="#444053"/>
        <path id="패스_204-2" data-name="패스 204" d="M853.853,71.4l.094.189c-11.238,14.26-25.309,31.259-36.548,43.819-1.038,1.228-2.172,2.455-3.116,3.777L814,118.9c1.039-1.322,2.078-2.55,3.211-3.778C828.354,102.564,842.709,85.66,853.853,71.4Z" transform="translate(-729.95 -3.971)" fill="#444053"/>
        <path id="패스_205-2" data-name="패스 205" d="M812.665,121.4l.189.378c-20.493,25.593-21.91,65.351-21.91,65.729L786.6,182.6C786.694,182.124,791.983,147.182,812.665,121.4Z" transform="translate(-728.426 -6.753)" fill="#444053"/>
        <path id="패스_206-2" data-name="패스 206" d="M904.2,159.061s-24.176-12.56-43.064-8.027-61.29-15.96-61.29-15.96-18.037-7.366-21.626-15.677c0,0-12.371-13.127-13.032-19.832S752.438,75.767,744.6,75.2" transform="translate(-726.09 -4.183)" fill="none" stroke="#444053" stroke-miterlimit="10" stroke-width="1"/>
        <path id="패스_207-2" data-name="패스 207" d="M909.259,175.754S897.077,167.538,898.493,158" transform="translate(-734.644 -8.788)" fill="none" stroke="#444053" stroke-miterlimit="10" stroke-width="1"/>
        <path id="패스_208-2" data-name="패스 208" d="M888.971,186.264S871.5,179.937,869.8,155.1" transform="translate(-733.054 -8.627)" fill="none" stroke="#444053" stroke-miterlimit="10" stroke-width="1"/>
        <path id="패스_209-2" data-name="패스 209" d="M859.578,192.664s-16.621-13.788-11.143-37.964" transform="translate(-731.804 -8.605)" fill="none" stroke="#444053" stroke-miterlimit="10" stroke-width="1"/>
        <path id="패스_210-2" data-name="패스 210" d="M824.188,185.442S813.139,162.21,822.96,147.1" transform="translate(-730.222 -8.182)" fill="none" stroke="#444053" stroke-miterlimit="10" stroke-width="1"/>
        <path id="패스_211-2" data-name="패스 211" d="M913.295,147.8s-12.56,3.966-9.916,10.671" transform="translate(-734.901 -8.221)" fill="none" stroke="#444053" stroke-miterlimit="10" stroke-width="1"/>
        <path id="패스_212-2" data-name="패스 212" d="M896.782,123.6s-16.9,5.383-17.282,29.181" transform="translate(-733.594 -6.875)" fill="none" stroke="#444053" stroke-miterlimit="10" stroke-width="1"/>
        <path id="패스_213-2" data-name="패스 213" d="M872.057,117.7s-15.393,18.982-14.26,36.17" transform="translate(-732.383 -6.547)" fill="none" stroke="#444053" stroke-miterlimit="10" stroke-width="1"/>
        <path id="패스_214-2" data-name="패스 214" d="M843.605,125.6s-15.3,14.543-13.316,22.665" transform="translate(-730.847 -6.986)" fill="none" stroke="#444053" stroke-miterlimit="10" stroke-width="1"/>
        <path id="패스_215-2" data-name="패스 215" d="M833.738,120.072s-14.26,2.55-16.338-2.172" transform="translate(-730.139 -6.558)" fill="none" stroke="#444053" stroke-miterlimit="10" stroke-width="1"/>
        <path id="패스_216-2" data-name="패스 216" d="M815,101.9s7.272,9.538,9.066,7.461" transform="translate(-730.006 -5.668)" fill="none" stroke="#444053" stroke-miterlimit="10" stroke-width="1"/>
        <path id="패스_217-2" data-name="패스 217" d="M888.2,95.016S852.122,97.66,844,86.8" transform="translate(-731.619 -4.828)" fill="none" stroke="#444053" stroke-miterlimit="10" stroke-width="1"/>
        <path id="패스_218-2" data-name="패스 218" d="M807,50.8s16.9,36.264,29.182,40.892" transform="translate(-729.561 -2.826)" fill="none" stroke="#444053" stroke-miterlimit="10" stroke-width="1"/>
        <path id="패스_219-2" data-name="패스 219" d="M825.8,32.5s10.388,33.337,23.232,43.819" transform="translate(-730.607 -1.808)" fill="none" stroke="#444053" stroke-miterlimit="10" stroke-width="1"/>
        <path id="패스_220-2" data-name="패스 220" d="M904.319,66.294S876.932,78,860.5,66.2" transform="translate(-732.537 -3.682)" fill="none" stroke="#444053" stroke-miterlimit="10" stroke-width="0.75"/>
        <path id="패스_221-2" data-name="패스 221" d="M851.6,25s6.233,24.554,14.732,30.5" transform="translate(-732.042 -1.391)" fill="none" stroke="#444053" stroke-miterlimit="10" stroke-width="0.75"/>
        <path id="패스_222-2" data-name="패스 222" d="M901.254,37.2s-15.393,5.855-21.154,1.322" transform="translate(-733.627 -2.069)" fill="none" stroke="#444053" stroke-miterlimit="10" stroke-width="0.75"/>
        <path id="패스_223-2" data-name="패스 223" d="M800.655,110.4s0,21.437-5.855,22.948" transform="translate(-728.883 -6.141)" fill="none" stroke="#444053" stroke-miterlimit="10" stroke-width="1"/>
        <path id="패스_224-2" data-name="패스 224" d="M750.6,139.116s23.137,1.983,33.809-9.916" transform="translate(-726.424 -7.186)" fill="none" stroke="#444053" stroke-miterlimit="10" stroke-width="1"/>
        <path id="패스_225-2" data-name="패스 225" d="M793.459,83.6s-5.572,21.721-21.059,27.576" transform="translate(-727.637 -4.65)" fill="none" stroke="#444053" stroke-miterlimit="10" stroke-width="1"/>
        <path id="패스_226-2" data-name="패스 226" d="M735.9,114.983s16.338,5.666,30.5-8.783" transform="translate(-725.606 -5.907)" fill="none" stroke="#444053" stroke-miterlimit="10" stroke-width="1"/>
        <path id="패스_227-2" data-name="패스 227" d="M774.716,63.8S773.2,82.215,763.1,90.809" transform="translate(-727.119 -3.549)" fill="none" stroke="#444053" stroke-miterlimit="10" stroke-width="1"/>
        <path id="패스_228-2" data-name="패스 228" d="M736.6,85.544s13.6.094,16.81-4.344" transform="translate(-725.645 -4.517)" fill="none" stroke="#444053" stroke-miterlimit="10" stroke-width="1"/>
      </g>
      <g id="abffebd3-2ac6-4c6b-a0d4-e62621854ed7_1_" transform="translate(18.455 622.126) rotate(57)" opacity="0.6">
        <path id="패스_114" data-name="패스 114" d="M200.062,190.69s-14.636-25.92-36.67-33.371a45.137,45.137,0,0,1-22.833-17.085A79.4,79.4,0,0,1,133.8,128.1" transform="translate(-118.033 -87.416)" fill="none" stroke="#535461" stroke-miterlimit="10" stroke-width="2"/>
        <path id="패스_115" data-name="패스 115" d="M106.158,109.452c2.5,2.448,14.21,4.95,14.21,4.95s-2.874-11.6-5.376-14.051a6.323,6.323,0,1,0-8.941,8.941c0,.053.053.106.106.16Z" transform="translate(-104.175 -73.558)" fill="#38d39f"/>
        <path id="패스_116" data-name="패스 116" d="M115.824,147.544c3.406.692,14.636-3.566,14.636-3.566s-8.729-8.2-12.135-8.888a6.344,6.344,0,0,0-7.451,5,6.243,6.243,0,0,0,4.95,7.451Z" transform="translate(-107.242 -90.627)" fill="#38d39f"/>
        <path id="패스_117" data-name="패스 117" d="M158.094,190.534c3.3-1.118,10.8-10.432,10.8-10.432s-11.656-2.661-14.956-1.543a6.337,6.337,0,1,0,4.151,11.975Z" transform="translate(-125.455 -110.891)" fill="#38d39f"/>
        <path id="패스_118" data-name="패스 118" d="M200.559,214.87c3.459-.585,12.454-8.462,12.454-8.462S202,201.83,198.537,202.362a6.335,6.335,0,0,0,2.022,12.507Z" transform="translate(-145.833 -122.133)" fill="#38d39f"/>
        <path id="패스_119" data-name="패스 119" d="M154.967,129.333c0,3.513-6.333,13.625-6.333,13.625s-6.334-10.112-6.334-13.625a6.334,6.334,0,0,1,12.667,0Z" transform="translate(-122.009 -85.03)" fill="#38d39f"/>
        <path id="패스_120" data-name="패스 120" d="M203.483,157.067c-1.064,3.353-10.112,11.124-10.112,11.124s-3.034-11.6-1.969-14.9a6.329,6.329,0,0,1,12.082,3.779Z" transform="translate(-144.871 -97.116)" fill="#38d39f"/>
        <path id="패스_121" data-name="패스 121" d="M246.132,192.979c-.479,3.459-8.09,12.667-8.09,12.667s-4.95-10.911-4.471-14.37a6.338,6.338,0,1,1,12.561,1.7Z" transform="translate(-164.688 -114.4)" fill="#38d39f"/>
        <path id="패스_122" data-name="패스 122" d="M106.158,109.452c2.5,2.448,14.21,4.95,14.21,4.95s-2.874-11.6-5.376-14.051a6.323,6.323,0,1,0-8.941,8.941c0,.053.053.106.106.16Z" transform="translate(-104.175 -73.558)" opacity="0.25"/>
        <path id="패스_123" data-name="패스 123" d="M115.824,147.544c3.406.692,14.636-3.566,14.636-3.566s-8.729-8.2-12.135-8.888a6.344,6.344,0,0,0-7.451,5,6.243,6.243,0,0,0,4.95,7.451Z" transform="translate(-107.242 -90.627)" opacity="0.25"/>
        <path id="패스_124" data-name="패스 124" d="M158.094,190.534c3.3-1.118,10.8-10.432,10.8-10.432s-11.656-2.661-14.956-1.543a6.337,6.337,0,1,0,4.151,11.975Z" transform="translate(-125.455 -110.891)" opacity="0.25"/>
        <path id="패스_125" data-name="패스 125" d="M200.559,214.87c3.459-.585,12.454-8.462,12.454-8.462S202,201.83,198.537,202.362a6.335,6.335,0,0,0,2.022,12.507Z" transform="translate(-145.833 -122.133)" opacity="0.25"/>
        <path id="패스_126" data-name="패스 126" d="M154.967,129.333c0,3.513-6.333,13.625-6.333,13.625s-6.334-10.112-6.334-13.625a6.334,6.334,0,0,1,12.667,0Z" transform="translate(-122.009 -85.03)" opacity="0.25"/>
        <path id="패스_127" data-name="패스 127" d="M203.483,157.067c-1.064,3.353-10.112,11.124-10.112,11.124s-3.034-11.6-1.969-14.9a6.329,6.329,0,0,1,12.082,3.779Z" transform="translate(-144.871 -97.116)" opacity="0.25"/>
        <path id="패스_128" data-name="패스 128" d="M246.132,192.979c-.479,3.459-8.09,12.667-8.09,12.667s-4.95-10.911-4.471-14.37a6.338,6.338,0,1,1,12.561,1.7Z" transform="translate(-164.688 -114.4)" opacity="0.25"/>
        <path id="패스_129" data-name="패스 129" d="M225.834,170.939s-2.874-29.645-20.012-45.4a44.7,44.7,0,0,1-13.944-24.855A75.068,75.068,0,0,1,190.6,86.9" transform="translate(-144.602 -68.144)" fill="none" stroke="#535461" stroke-miterlimit="10" stroke-width="2"/>
        <path id="패스_130" data-name="패스 130" d="M170.087,60.356c1.331,3.247,10.964,10.272,10.964,10.272s2.076-11.762.8-15.009a6.34,6.34,0,1,0-11.762,4.737Z" transform="translate(-134.787 -51.659)" fill="#38d39f"/>
        <path id="패스_131" data-name="패스 131" d="M163.524,99.059c2.874,2.022,14.8,2.661,14.8,2.661s-4.63-11.017-7.5-13.04a6.342,6.342,0,0,0-7.292,10.378Z" transform="translate(-130.673 -68.434)" fill="#38d39f"/>
        <path id="패스_132" data-name="패스 132" d="M184.785,155.391c3.46.266,14.1-5.163,14.1-5.163s-9.58-7.132-13.04-7.451a6.329,6.329,0,1,0-1.064,12.614Z" transform="translate(-139.159 -94.269)" fill="#38d39f"/>
        <path id="패스_133" data-name="패스 133" d="M213.474,194.831c3.406.852,14.8-2.714,14.8-2.714s-8.25-8.675-11.6-9.58a6.329,6.329,0,0,0-3.779,12.082,4.043,4.043,0,0,1,.586.213Z" transform="translate(-152.946 -112.74)" fill="#38d39f"/>
        <path id="패스_134" data-name="패스 134" d="M206.6,98.147c-1.437,3.193-11.337,9.9-11.337,9.9s-1.7-11.815-.266-15.062a6.35,6.35,0,1,1,11.6,5.163Z" transform="translate(-146.388 -69.225)" fill="#38d39f"/>
        <path id="패스_135" data-name="패스 135" d="M237.385,143.173c-2.289,2.608-13.785,6.067-13.785,6.067s1.916-11.815,4.258-14.423a6.336,6.336,0,1,1,9.527,8.356Z" transform="translate(-160.039 -89.555)" fill="#38d39f"/>
        <path id="패스_136" data-name="패스 136" d="M263.506,193.29c-1.81,2.98-12.507,8.3-12.507,8.3s-.106-11.975,1.756-14.956a6.322,6.322,0,1,1,10.751,6.653Z" transform="translate(-172.855 -113.381)" fill="#38d39f"/>
      </g>
    </g>
    <g id="leaves-2" data-name="leaves" transform="translate(-322.128 289.343) rotate(-59)" opacity="0.8">
      <path id="패스_202-3" data-name="패스 202" d="M1062.557,282.14s-17.841-7.263-74.521,18.788-63.627,22.735-78.311,18.788-22.893-4.894-38.524-26.682c0,0-11.052-60.154-21.788-69.469s-56.523,5.368-56.523,5.368-54.628,12.631-65.206-60.47c0,0,7.421-55.1-2.684-72,0,0,20.367,8.842,53.839-5.368s60.311,15.315,60.311,15.315,8.526,21.946,7.578,34.892,4.421,18,20.525,11.683c0,0,7.894-11.21-3.315-29.682s-19.1-32.208-15.946-46.576,12-34.261,40.734-44.208,67.732-11.841,86.362-19.578S998.613,0,998.613,0s-11.525,11.526,15.631,60.47,9.789,70.1,9.789,70.1-14.367,34.419-78.152,31.577c0,0-61.418,2.21-27.947,28.261,0,0,21.473-4.421,53.523-14.525s55.1,31.893,60.944,61.1C1038.085,266.193,1062.557,282.14,1062.557,282.14Z" transform="translate(-725)" fill="#38d39f"/>
      <path id="패스_203-3" data-name="패스 203" d="M904.27,23.458l.316-.158c2.526,9.315-24.945,46.892-48.47,76.574l-.315-.158C889.113,57.877,906.323,30.721,904.27,23.458Z" transform="translate(-649.287 13.487)" fill="#444053"/>
      <path id="패스_204-3" data-name="패스 204" d="M880.627,71.4l.158.316c-18.788,23.841-42.313,52.26-61.1,73.258-1.736,2.052-3.631,4.1-5.21,6.315l-.473-.474c1.737-2.21,3.473-4.263,5.369-6.315C838,123.5,862,95.241,880.627,71.4Z" transform="translate(-673.483 41.33)" fill="#444053"/>
      <path id="패스_205-3" data-name="패스 205" d="M830.176,121.4l.316.632c-34.261,42.787-36.629,109.256-36.629,109.888l-7.262-8.21C786.758,222.92,795.6,164.5,830.176,121.4Z" transform="translate(-689.343 70.272)" fill="#444053"/>
      <path id="패스_206-3" data-name="패스 206" d="M1011.425,215.4s-40.418-21-72-13.42S836.962,175.3,836.962,175.3s-30.156-12.315-36.155-26.209c0,0-20.683-21.946-21.788-33.156S757.7,76.147,744.6,75.2" transform="translate(-713.655 43.529)" fill="none" stroke="#444053" stroke-miterlimit="10" stroke-width="1"/>
      <path id="패스_207-3" data-name="패스 207" d="M916.569,187.682S896.2,173.946,898.57,158" transform="translate(-624.641 91.458)" fill="none" stroke="#444053" stroke-miterlimit="10" stroke-width="1"/>
      <path id="패스_208-3" data-name="패스 208" d="M901.85,207.2s-29.208-10.578-32.05-52.1" transform="translate(-641.183 89.779)" fill="none" stroke="#444053" stroke-miterlimit="10" stroke-width="1"/>
      <path id="패스_209-3" data-name="패스 209" d="M867.809,218.17s-27.787-23.051-18.63-63.47" transform="translate(-654.192 89.547)" fill="none" stroke="#444053" stroke-miterlimit="10" stroke-width="1"/>
      <path id="패스_210-3" data-name="패스 210" d="M827.746,211.2s-18.472-38.84-2.053-64.1" transform="translate(-670.651 85.148)" fill="none" stroke="#444053" stroke-miterlimit="10" stroke-width="1"/>
      <path id="패스_211-3" data-name="패스 211" d="M920.2,147.8s-21,6.631-16.578,17.841" transform="translate(-621.958 85.553)" fill="none" stroke="#444053" stroke-miterlimit="10" stroke-width="1"/>
      <path id="패스_212-3" data-name="패스 212" d="M908.393,123.6s-28.261,9-28.893,48.786" transform="translate(-635.568 71.545)" fill="none" stroke="#444053" stroke-miterlimit="10" stroke-width="1"/>
      <path id="패스_213-3" data-name="패스 213" d="M881.677,117.7s-25.735,31.735-23.841,60.47" transform="translate(-648.166 68.13)" fill="none" stroke="#444053" stroke-miterlimit="10" stroke-width="1"/>
      <path id="패스_214-3" data-name="패스 214" d="M852.67,125.6s-25.577,24.314-22.262,37.892" transform="translate(-664.156 72.703)" fill="none" stroke="#444053" stroke-miterlimit="10" stroke-width="1"/>
      <path id="패스_215-3" data-name="패스 215" d="M844.714,121.531s-23.841,4.263-27.314-3.631" transform="translate(-671.514 68.246)" fill="none" stroke="#444053" stroke-miterlimit="10" stroke-width="1"/>
      <path id="패스_216-3" data-name="패스 216" d="M815,101.9s12.157,15.946,15.157,12.473" transform="translate(-672.904 58.984)" fill="none" stroke="#444053" stroke-miterlimit="10" stroke-width="1"/>
      <path id="패스_217-3" data-name="패스 217" d="M917.89,100.536S857.578,104.957,844,86.8" transform="translate(-656.117 50.244)" fill="none" stroke="#444053" stroke-miterlimit="10" stroke-width="1"/>
      <path id="패스_218-3" data-name="패스 218" d="M807,50.8s28.262,60.628,48.787,68.364" transform="translate(-677.535 29.405)" fill="none" stroke="#444053" stroke-miterlimit="10" stroke-width="1"/>
      <path id="패스_219-3" data-name="패스 219" d="M825.8,32.5s17.368,55.733,38.84,73.258" transform="translate(-666.653 18.812)" fill="none" stroke="#444053" stroke-miterlimit="10" stroke-width="1"/>
      <path id="패스_220-3" data-name="패스 220" d="M933.759,66.358S887.972,85.936,860.5,66.2" transform="translate(-646.567 38.32)" fill="none" stroke="#444053" stroke-miterlimit="10" stroke-width="0.75"/>
      <path id="패스_221-3" data-name="패스 221" d="M851.6,25s10.42,41.05,24.63,51" transform="translate(-651.718 14.471)" fill="none" stroke="#444053" stroke-miterlimit="10" stroke-width="0.75"/>
      <path id="패스_222-3" data-name="패스 222" d="M915.466,37.2s-25.735,9.789-35.366,2.21" transform="translate(-635.221 21.533)" fill="none" stroke="#444053" stroke-miterlimit="10" stroke-width="0.75"/>
      <path id="패스_223-3" data-name="패스 223" d="M804.589,110.4s0,35.84-9.789,38.366" transform="translate(-684.597 63.905)" fill="none" stroke="#444053" stroke-miterlimit="10" stroke-width="1"/>
      <path id="패스_224-3" data-name="패스 224" d="M750.6,145.778s38.682,3.316,56.522-16.578" transform="translate(-710.181 74.787)" fill="none" stroke="#444053" stroke-miterlimit="10" stroke-width="1"/>
      <path id="패스_225-3" data-name="패스 225" d="M807.608,83.6s-9.315,36.313-35.208,46.1" transform="translate(-697.563 48.391)" fill="none" stroke="#444053" stroke-miterlimit="10" stroke-width="1"/>
      <path id="패스_226-3" data-name="패스 226" d="M735.9,120.883s27.314,9.473,51-14.683" transform="translate(-718.69 61.473)" fill="none" stroke="#444053" stroke-miterlimit="10" stroke-width="1"/>
      <path id="패스_227-3" data-name="패스 227" d="M782.52,63.8s-2.526,30.787-19.42,45.155" transform="translate(-702.946 36.93)" fill="none" stroke="#444053" stroke-miterlimit="10" stroke-width="1"/>
      <path id="패스_228-3" data-name="패스 228" d="M736.6,88.463s22.735.158,28.1-7.263" transform="translate(-718.285 47.002)" fill="none" stroke="#444053" stroke-miterlimit="10" stroke-width="1"/>
    </g>
    <g id="leaves-3" data-name="leaves" transform="translate(-322.128 289.343) rotate(-59)" opacity="0.8">
      <path id="패스_203-4" data-name="패스 203" d="M904.27,23.458l.316-.158c2.526,9.315-24.945,46.892-48.47,76.574l-.315-.158C889.113,57.877,906.323,30.721,904.27,23.458Z" transform="translate(-649.287 13.487)" fill="#444053"/>
      <path id="패스_204-4" data-name="패스 204" d="M880.627,71.4l.158.316c-18.788,23.841-42.313,52.26-61.1,73.258-1.736,2.052-3.631,4.1-5.21,6.315l-.473-.474c1.737-2.21,3.473-4.263,5.369-6.315C838,123.5,862,95.241,880.627,71.4Z" transform="translate(-673.483 41.33)" fill="#444053"/>
      <path id="패스_205-4" data-name="패스 205" d="M830.176,121.4l.316.632c-34.261,42.787-36.629,109.256-36.629,109.888l-7.262-8.21C786.758,222.92,795.6,164.5,830.176,121.4Z" transform="translate(-689.343 70.272)" fill="#444053"/>
      <path id="패스_206-4" data-name="패스 206" d="M1011.425,215.4s-40.418-21-72-13.42S836.962,175.3,836.962,175.3s-30.156-12.315-36.155-26.209c0,0-20.683-21.946-21.788-33.156S757.7,76.147,744.6,75.2" transform="translate(-713.655 43.529)" fill="none" stroke="#444053" stroke-miterlimit="10" stroke-width="1"/>
      <path id="패스_207-4" data-name="패스 207" d="M916.569,187.682S896.2,173.946,898.57,158" transform="translate(-624.641 91.458)" fill="none" stroke="#444053" stroke-miterlimit="10" stroke-width="1"/>
      <path id="패스_208-4" data-name="패스 208" d="M901.85,207.2s-29.208-10.578-32.05-52.1" transform="translate(-641.183 89.779)" fill="none" stroke="#444053" stroke-miterlimit="10" stroke-width="1"/>
      <path id="패스_209-4" data-name="패스 209" d="M867.809,218.17s-27.787-23.051-18.63-63.47" transform="translate(-654.192 89.547)" fill="none" stroke="#444053" stroke-miterlimit="10" stroke-width="1"/>
      <path id="패스_210-4" data-name="패스 210" d="M827.746,211.2s-18.472-38.84-2.053-64.1" transform="translate(-670.651 85.148)" fill="none" stroke="#444053" stroke-miterlimit="10" stroke-width="1"/>
      <path id="패스_211-4" data-name="패스 211" d="M920.2,147.8s-21,6.631-16.578,17.841" transform="translate(-621.958 85.553)" fill="none" stroke="#444053" stroke-miterlimit="10" stroke-width="1"/>
      <path id="패스_212-4" data-name="패스 212" d="M908.393,123.6s-28.261,9-28.893,48.786" transform="translate(-635.568 71.545)" fill="none" stroke="#444053" stroke-miterlimit="10" stroke-width="1"/>
      <path id="패스_213-4" data-name="패스 213" d="M881.677,117.7s-25.735,31.735-23.841,60.47" transform="translate(-648.166 68.13)" fill="none" stroke="#444053" stroke-miterlimit="10" stroke-width="1"/>
      <path id="패스_214-4" data-name="패스 214" d="M852.67,125.6s-25.577,24.314-22.262,37.892" transform="translate(-664.156 72.703)" fill="none" stroke="#444053" stroke-miterlimit="10" stroke-width="1"/>
      <path id="패스_215-4" data-name="패스 215" d="M844.714,121.531s-23.841,4.263-27.314-3.631" transform="translate(-671.514 68.246)" fill="none" stroke="#444053" stroke-miterlimit="10" stroke-width="1"/>
      <path id="패스_216-4" data-name="패스 216" d="M815,101.9s12.157,15.946,15.157,12.473" transform="translate(-672.904 58.984)" fill="none" stroke="#444053" stroke-miterlimit="10" stroke-width="1"/>
      <path id="패스_217-4" data-name="패스 217" d="M917.89,100.536S857.578,104.957,844,86.8" transform="translate(-656.117 50.244)" fill="none" stroke="#444053" stroke-miterlimit="10" stroke-width="1"/>
      <path id="패스_218-4" data-name="패스 218" d="M807,50.8s28.262,60.628,48.787,68.364" transform="translate(-677.535 29.405)" fill="none" stroke="#444053" stroke-miterlimit="10" stroke-width="1"/>
      <path id="패스_219-4" data-name="패스 219" d="M825.8,32.5s17.368,55.733,38.84,73.258" transform="translate(-666.653 18.812)" fill="none" stroke="#444053" stroke-miterlimit="10" stroke-width="1"/>
      <path id="패스_220-4" data-name="패스 220" d="M933.759,66.358S887.972,85.936,860.5,66.2" transform="translate(-646.567 38.32)" fill="none" stroke="#444053" stroke-miterlimit="10" stroke-width="0.75"/>
      <path id="패스_221-4" data-name="패스 221" d="M851.6,25s10.42,41.05,24.63,51" transform="translate(-651.718 14.471)" fill="none" stroke="#444053" stroke-miterlimit="10" stroke-width="0.75"/>
      <path id="패스_222-4" data-name="패스 222" d="M915.466,37.2s-25.735,9.789-35.366,2.21" transform="translate(-635.221 21.533)" fill="none" stroke="#444053" stroke-miterlimit="10" stroke-width="0.75"/>
      <path id="패스_223-4" data-name="패스 223" d="M804.589,110.4s0,35.84-9.789,38.366" transform="translate(-684.597 63.905)" fill="none" stroke="#444053" stroke-miterlimit="10" stroke-width="1"/>
      <path id="패스_224-4" data-name="패스 224" d="M750.6,145.778s38.682,3.316,56.522-16.578" transform="translate(-710.181 74.787)" fill="none" stroke="#444053" stroke-miterlimit="10" stroke-width="1"/>
      <path id="패스_225-4" data-name="패스 225" d="M807.608,83.6s-9.315,36.313-35.208,46.1" transform="translate(-697.563 48.391)" fill="none" stroke="#444053" stroke-miterlimit="10" stroke-width="1"/>
      <path id="패스_226-4" data-name="패스 226" d="M735.9,120.883s27.314,9.473,51-14.683" transform="translate(-718.69 61.473)" fill="none" stroke="#444053" stroke-miterlimit="10" stroke-width="1"/>
      <path id="패스_227-4" data-name="패스 227" d="M782.52,63.8s-2.526,30.787-19.42,45.155" transform="translate(-702.946 36.93)" fill="none" stroke="#444053" stroke-miterlimit="10" stroke-width="1"/>
      <path id="패스_228-4" data-name="패스 228" d="M736.6,88.463s22.735.158,28.1-7.263" transform="translate(-718.285 47.002)" fill="none" stroke="#444053" stroke-miterlimit="10" stroke-width="1"/>
    </g>
  </g>
</svg>
